<?xml version="1.0" encoding="utf-8"?>
<!-- Generator: Adobe Illustrator 23.0.2, SVG Export Plug-In . SVG Version: 6.00 Build 0)  -->
<svg version="1.1" id="圖層_1" xmlns="http://www.w3.org/2000/svg" xmlns:xlink="http://www.w3.org/1999/xlink" x="0px" y="0px"
	 viewBox="0 0 66 66" style="enable-background:new 0 0 66 66;" xml:space="preserve">
<style type="text/css">
	.st0{fill:#FFFFFF;}
	.st1{fill:#006633;}
</style>
<g>
	<path class="st0" d="M66,65.98c-22,0-44,0-66,0C0,43.99,0,22.01,0,0.02c22,0,44,0,66,0C66,22.01,66,43.99,66,65.98z M60.73,24.44
		c-0.82,0-1.63,0-2.45-0.01c0-0.79,0-1.58,0-2.36c-2.48,0-4.83,0-7.23,0c0,0.84,0,1.6,0,2.36c-0.79,0-1.58,0-2.49,0
		c0,0.87,0,1.62,0,2.44c-0.84,0-1.56,0-2.39,0c0,0.82,0,1.57,0,2.4c-0.88,0-1.65,0-2.41,0c0-1.6,0-3.19,0-4.91c0.91,0,1.65,0,2.38,0
		c0-0.84,0-1.56,0-2.39c-0.8,0-1.55,0-2.41,0c0-1.67,0-3.22,0-4.75c-0.84,0-1.56,0-2.4,0c0,0.8,0,1.55,0,2.37c-0.88,0-1.65,0-2.41,0
		c0-1.6,0-3.19,0-4.91c0.91,0,1.66,0,2.48,0c0-0.84,0-1.56,0-2.39c0.82,0,1.57,0,2.29,0c0-3.28,0-6.44,0-9.59c-1.61,0-3.14,0-4.68,0
		c0,0.81,0,1.55,0,2.41c0.82,0,1.56,0,2.29,0c0,0.84,0,1.56,0,2.39c-0.8,0-1.55,0-2.41,0c0,0.86,0,1.61,0,2.33
		c-0.84,0-1.56,0-2.39,0c0-0.8,0-1.55,0-2.34c-0.88,0-1.65,0-2.41,0c0-0.79,0-1.58,0-2.48c0.9,0,1.64,0,2.38,0c0-0.83,0-1.55,0-2.31
		c-1.6,0-3.15,0-4.81,0c0,0.8,0,1.55,0,2.28c-0.86,0-1.6,0-2.42,0c0-0.8,0-1.52,0-2.28c-0.82,0-1.56,0-2.42,0c0,0.8,0,1.55,0,2.37
		c-0.88,0-1.64,0-2.4,0c0-0.79,0-1.57,0-2.36c-0.86,0-1.6,0-2.33,0c0,0.82,0,1.56,0,2.33c0.84,0,1.6,0,2.36,0c0,0.79,0,1.58,0,2.48
		c-0.91,0-1.65,0-2.39,0c0,2.45,0,4.77,0,7.14c0.8,0,1.54,0,2.4,0c0-0.81,0-1.55,0-2.37c1.69,0,3.25,0,4.82,0c0,0.79,0,1.58,0,2.49
		c-0.91,0-1.65,0-2.47,0c0,4.06,0,8,0,11.97c-0.83,0-1.57,0-2.43,0c0-1.62,0-3.18,0-4.71c-0.84,0-1.56,0-2.39,0c0,0.8,0,1.55,0,2.38
		c-0.88,0-1.65,0-2.41,0c0-0.79,0-1.57,0-2.36c-0.86,0-1.6,0-2.33,0c0,0.81,0,1.56,0,2.33c0.84,0,1.6,0,2.36,0c0,0.79,0,1.57,0,2.47
		c-0.9,0-1.64,0-2.42,0c0,0.87,0,1.63,0,2.39c-0.8-0.01-1.61-0.03-2.41-0.04c0-0.79,0-1.57,0-2.43c-0.92,0-1.64,0-2.47,0
		c0-1.63,0-3.18,0-4.71c-3.28,0-6.45,0-9.59,0c0,4.03,0,7.97,0,11.94c2.42,0,4.78,0,7.22,0c0-0.83,0-1.6,0-2.36L9.89,31.7
		c0.79,0,1.58,0,2.49,0c0-0.91,0-1.66,0-2.5c0.88,0,1.65,0,2.41,0c0,0.81,0,1.62,0,2.46c0.87,0,1.63,0,2.39,0c0,0.79,0,1.58,0,2.42
		c0.89,0,1.66,0,2.42,0c0,0.82,0,1.63,0,2.45c-0.79,0-1.58,0-2.36,0c0,0.86,0,1.61,0,2.39c0.84,0,1.6,0,2.36,0
		c-0.01,0.8-0.03,1.61-0.04,2.41c-1.59,0-3.18,0-4.84,0c0-0.85,0-1.57,0-2.34c-0.86,0-1.65,0-2.44,0c0.01-0.83,0.02-1.66,0.03-2.49
		c0.79,0,1.58,0,2.37,0c0-0.86,0-1.6,0-2.33c-0.82,0-1.56,0-2.33,0c0,0.84,0,1.6,0,2.36c-0.79,0-1.57,0-2.46,0c0,0.87,0,1.62,0,2.38
		c-0.8,0.01-1.6,0.03-2.4,0.04c0-0.79,0-1.58,0-2.36c-0.87,0-1.61,0-2.39,0c0,0.83,0,1.6,0,2.36c-0.79,0-1.58,0-2.37,0
		c0,0.86,0,1.6,0,2.33c0.82,0,1.56,0,2.33,0c0-0.84,0-1.6,0-2.36c0.82,0,1.63,0,2.45,0.01c0,1.6,0,3.19,0,4.76c0.87,0,1.62,0,2.34,0
		c0-1.66,0-3.23,0-4.8c0.82,0.03,1.64,0.05,2.46,0.08c0,1.59,0,3.18,0,4.72c2.54,0,4.9,0,7.22,0c0-0.85,0-1.62,0-2.38
		c0.83,0.01,1.66,0.02,2.5,0.03c0,1.59,0,3.18,0,4.88c1.66,0,3.2,0,4.86,0c0,0.85,0,1.6,0,2.38c0.87,0,1.64,0,2.4,0
		c0,0.82,0,1.63,0,2.45c-1.6,0-3.2,0-4.91,0c0,0.87,0,1.62,0,2.44c-0.84,0-1.56,0-2.29,0c0,3.24,0,6.41,0,9.55c0.82,0,1.56,0,2.39,0
		c0-0.8,0-1.52,0-2.26c1.63,0,3.18,0,4.85,0c0,0.82,0,1.56,0,2.29c0.84,0,1.56,0,2.39,0c0-0.8,0-1.55,0-2.41c2.48,0,4.84,0,7.27,0
		c0-0.84,0-1.56,0-2.39c0.82,0,1.57,0,2.37,0c0-0.88,0-1.65,0-2.41c0.82,0.01,1.63,0.02,2.45,0.04l-0.03-0.03c0,1.59,0,3.19,0,4.87
		c1.73,0,3.3,0,4.87,0l-0.03-0.03c0,0.79,0,1.58,0,2.34c4.95,0,9.73,0,14.48,0c0-0.81,0-1.53,0-2.36c-1.61,0-3.17,0-4.69,0
		c0-0.87,0-1.61,0-2.43c0.81,0,1.53,0,2.37,0c0-0.82,0-1.57,0-2.39c0.84,0,1.56,0,2.32,0c0-0.83,0-1.57,0-2.43
		c-0.81,0-1.56,0-2.38,0c0-0.84,0-1.56,0-2.32c-0.83,0-1.57,0-2.43,0c0,0.81,0,1.56,0,2.3c-0.84,0-1.56,0-2.4,0c0-0.8,0-1.55,0-2.41
		c-0.86,0-1.61,0-2.35,0c0-2.45,0-4.78,0-7.14c0.8,0,1.55,0,2.41,0c0,1.62,0,3.17,0,4.71c2.45,0,4.79,0,7.14,0c0-3.22,0-6.39,0-9.6
		c-0.83,0-1.6,0-2.36,0c0-0.82,0-1.63,0-2.45c0.79,0,1.58,0,2.35,0c0-1.68,0-3.22,0-4.85c-1.61,0-3.13,0-4.77,0
		c0-0.82,0-1.57,0-2.32c-1.67,0-3.22,0-4.81,0c0,0.84,0,1.6,0,2.36c-0.79,0-1.58,0-2.48,0c0,0.87,0,1.61,0,2.35
		c-0.84,0-1.55,0-2.31,0c0-1.6,0-3.15,0-4.82c0.81,0,1.55,0,2.34,0c0-1.68,0-3.25,0-4.82c2.43,0,4.86,0,7.29-0.01
		c0,0.79,0,1.58,0,2.36c0.87,0,1.61,0,2.39,0c0-0.83,0-1.6,0-2.36c0.79,0,1.58,0,2.37,0c0-0.86,0-1.6,0-2.33c-0.82,0-1.56,0-2.33,0
		C60.73,22.92,60.73,23.68,60.73,24.44z M46.28,2.7c0,5.68,0,11.26,0,16.83c5.64,0,11.2,0,16.79,0c0-5.63,0-11.21,0-16.83
		C57.46,2.7,51.9,2.7,46.28,2.7z M19.54,2.74c-5.69,0-11.27,0-16.84,0c0,5.64,0,11.19,0,16.78c5.64,0,11.22,0,16.84,0
		C19.54,13.91,19.54,8.35,19.54,2.74z M2.7,46.24c0,5.68,0,11.23,0,16.81c5.64,0,11.22,0,16.8,0c0-5.65,0-11.23,0-16.81
		C13.87,46.24,8.31,46.24,2.7,46.24z M22.02,19.52c0.84,0,1.58,0,2.32,0c0-0.81,0-1.55,0-2.26c-0.82,0-1.57,0-2.32,0
		C22.02,18.03,22.02,18.73,22.02,19.52z"/>
	<path d="M60.71,38.95c0.76,0,1.53,0,2.36,0c0,3.21,0,6.38,0,9.6c-2.36,0-4.69,0-7.14,0c0-1.54,0-3.09,0-4.71c-0.86,0-1.61,0-2.41,0
		c0,2.36,0,4.69,0,7.14c0.74,0,1.49,0,2.35,0c0,0.86,0,1.61,0,2.41c0.84,0,1.56,0,2.4,0c0-0.74,0-1.49,0-2.3c0.86,0,1.61,0,2.43,0
		c0,0.76,0,1.48,0,2.32c0.82,0,1.57,0,2.38,0c0,0.86,0,1.61,0,2.43c-0.76,0-1.48,0-2.32,0c0,0.82,0,1.57,0,2.39
		c-0.83,0-1.56,0-2.37,0c0,0.82,0,1.57,0,2.43c1.52,0,3.07,0,4.69,0c0,0.84,0,1.56,0,2.36c-4.75,0-9.53,0-14.48,0
		c0-0.76,0-1.55,0-2.34c0.79,0,1.58,0,2.37,0c0-2.48,0-4.83,0-7.16c-0.82,0-1.56,0-2.33,0c0,2.45,0,4.82,0,7.19
		c-1.57,0-3.14,0-4.87,0c0-1.68,0-3.27,0-4.87c0.79,0,1.58,0,2.37,0c0-0.86,0-1.6,0-2.33c-0.82,0-1.56,0-2.33,0c0,0.84,0,1.6,0,2.36
		c-0.82-0.01-1.63-0.02-2.45-0.04c0,0,0.03,0.03,0.03,0.03c0-1.6,0-3.19,0-4.77c-0.91,0-1.65,0-2.47,0c0,0.8,0,1.52,0,2.27
		c-1.63,0-3.18,0-4.72,0c0-2.43,0-4.78,0-7.13c1.61,0,3.13,0,4.77,0c0,0.79,0,1.54,0,2.29c0.86,0,1.61,0,2.32,0c0-1.63,0-3.18,0-4.8
		c-1.61,0-3.14,0-4.68,0c0-0.83,0-1.57,0-2.43c0.82,0,1.57,0,2.39,0c0-0.84,0-1.56,0-2.39c0.82,0,1.57,0,2.36,0
		c0-0.88,0-1.64,0-2.41c0.79,0,1.58,0,2.45,0c0-2.51,0-4.88,0-7.26l-0.03,0.03c0.76,0,1.53,0,2.41,0c0-0.83,0-1.57,0-2.4
		c0.83,0,1.55,0,2.39,0c0-0.82,0-1.57,0-2.44c0.9,0,1.7,0,2.49,0l-0.03-0.03c0,1.57,0,3.13,0,4.82c-0.79,0-1.53,0-2.34,0
		c0,1.66,0,3.21,0,4.82c0.76,0,1.47,0,2.31,0c0-0.73,0-1.48,0-2.35c0.9,0,1.69,0,2.48,0l-0.03-0.03c0,3.2,0,6.41,0,9.62
		c2.5,0,4.86,0,7.29,0c0-0.84,0-1.6,0-2.36L60.71,38.95z M48.61,38.92c0.79,0,1.57,0,2.36,0c0-0.85,0-1.59,0-2.32
		c-0.81,0-1.55,0-2.33,0c0,0.84,0,1.59,0,2.35c-0.79,0-1.58,0-2.37,0c0,0.86,0,1.6,0,2.33c0.82,0,1.56,0,2.33,0
		C48.61,40.44,48.61,39.68,48.61,38.92z M50.96,50.98c0-2.44,0-4.8,0-7.12c-2.43,0-4.79,0-7.12,0c0,2.42,0,4.74,0,7.12
		C46.23,50.98,48.56,50.98,50.96,50.98z M55.81,60.65c0-1.63,0-3.18,0-4.7c-0.82,0-1.56,0-2.29,0c0,1.61,0,3.13,0,4.7
		C54.29,60.65,55,60.65,55.81,60.65z M60.63,46.15c0-0.86,0-1.6,0-2.32c-0.8,0-1.52,0-2.27,0c0,0.8,0,1.54,0,2.32
		C59.15,46.15,59.87,46.15,60.63,46.15z"/>
	<path d="M17.18,29.28c0-0.76,0-1.52,0-2.39c0.78,0,1.52,0,2.42,0c0-0.9,0-1.68,0-2.47l-0.03,0.03c0.76,0,1.53,0,2.41,0
		c0-0.83,0-1.58,0-2.38c0.84,0,1.56,0,2.39,0c0,1.53,0,3.08,0,4.71c0.86,0,1.61,0,2.43,0c0-3.96,0-7.91,0-11.97
		c0.82,0,1.57,0,2.47,0c0-0.91,0-1.7,0-2.49c0,0-0.03,0.03-0.03,0.03c0.79,0,1.57,0,2.47,0c0-0.89,0-1.63,0-2.48c0.85,0,1.6,0,2.4,0
		c0-0.87,0-1.63,0-2.39l-0.03,0.03c0.76,0,1.53,0,2.41,0c0,0.79,0,1.54,0,2.34c0.83,0,1.55,0,2.39,0c0-0.72,0-1.47,0-2.33
		c0.86,0,1.61,0,2.41,0c0-0.83,0-1.55,0-2.39c-0.72,0-1.47,0-2.29,0c0-0.86,0-1.61,0-2.41c1.55,0,3.07,0,4.68,0
		c0,3.14,0,6.31,0,9.59c-0.72,0-1.47,0-2.29,0c0,0.84,0,1.55,0,2.39c-0.82,0-1.57,0-2.48,0c0,1.71,0,3.31,0,4.91l0.03-0.03
		c-0.79,0-1.58,0-2.47,0c0-1.67,0-3.21,0-4.75c-1.66,0-3.2,0-4.79,0c0,0.83,0,1.6,0,2.36c-0.79,0-1.58,0-2.37,0
		c0,1.67,0,3.22,0,4.74c0.82,0,1.56,0,2.33,0c0-1.65,0-3.21,0-4.77c0.79,0,1.58,0,2.45,0c0,4.15,0,8.14,0,12.13
		c-1.6,0-3.19,0-4.84,0c0,1.7,0,3.27,0,4.84c-1.6,0-3.2,0-4.77,0c0,0.87,0,1.62,0,2.44c0.8,0,1.52,0,2.26,0c0,1.63,0,3.18,0,4.78
		c-0.83,0-1.6,0-2.36,0c0,0,0.03,0.03,0.03,0.03c0-0.79,0-1.58,0-2.45c-0.92,0-1.69,0-2.45,0l0.03,0.03c0-0.79,0-1.58,0-2.45
		c-0.92,0-1.69,0-2.45,0l0.03,0.03c0-0.82,0-1.63,0-2.45l-0.03,0.03c0.79,0,1.58,0,2.49,0c0-0.91,0-1.65,0-2.47
		c0.84,0,1.56,0,2.29,0c0-0.83,0-1.57,0-2.39c-2.45,0-4.83,0-7.2,0L17.18,29.28z M31.62,26.79c0-0.84,0-1.56,0-2.3
		c-0.8,0-1.55,0-2.28,0c0,0.81,0,1.55,0,2.3C30.13,26.79,30.85,26.79,31.62,26.79z"/>
	<path d="M46.28,2.7c5.62,0,11.17,0,16.79,0c0,5.62,0,11.2,0,16.83c-5.6,0-11.15,0-16.79,0C46.28,13.96,46.28,8.39,46.28,2.7z
		 M48.7,5.12c0,4.06,0,8.02,0,11.96c4.05,0,8.02,0,11.96,0c0-4.03,0-7.97,0-11.96C56.66,5.12,52.72,5.12,48.7,5.12z"/>
	<path d="M19.54,2.74c0,5.61,0,11.16,0,16.78c-5.62,0-11.21,0-16.84,0c0-5.59,0-11.15,0-16.78C8.27,2.74,13.85,2.74,19.54,2.74z
		 M5.11,17.09c4.06,0,8.02,0,11.96,0c0-4.04,0-8.01,0-11.96c-4.03,0-7.97,0-11.96,0C5.11,9.13,5.11,13.07,5.11,17.09z"/>
	<path d="M2.7,46.24c5.61,0,11.17,0,16.8,0c0,5.59,0,11.16,0,16.81c-5.58,0-11.16,0-16.8,0C2.7,57.47,2.7,51.92,2.7,46.24z
		 M5.14,48.66c0,4.05,0,8.02,0,11.96c4.05,0,8.02,0,11.96,0c0-4.03,0-7.97,0-11.96C13.1,48.66,9.16,48.66,5.14,48.66z"/>
	<path d="M41.35,55.85c0,0.76,0,1.53,0,2.41c-0.79,0-1.54,0-2.37,0c0,0.83,0,1.55,0,2.39c-2.43,0-4.79,0-7.27,0
		c0,0.86,0,1.61,0,2.41c-0.84,0-1.56,0-2.39,0c0-0.72,0-1.47,0-2.29c-1.67,0-3.22,0-4.85,0c0,0.74,0,1.46,0,2.26
		c-0.82,0-1.57,0-2.39,0c0-3.14,0-6.31,0-9.55c0.74,0,1.46,0,2.29,0c0-0.82,0-1.57,0-2.44c1.71,0,3.31,0,4.91,0l-0.03-0.03
		c0,1.6,0,3.19,0,4.9c-0.87,0-1.62,0-2.35,0c0,0.84,0,1.55,0,2.31c3.22,0,6.38,0,9.66,0c0-0.8,0-1.55,0-2.34c1.69,0,3.26,0,4.82,0
		L41.35,55.85z"/>
	<path d="M14.79,29.2c-0.77,0-1.53,0-2.42,0c0,0.84,0,1.59,0,2.5c-0.9,0-1.7,0-2.49,0c0-0.79,0-1.58,0-2.49c-0.87,0-1.62,0-2.44,0
		c0-1.64,0-3.17,0-4.72c-0.82,0-1.57,0-2.31,0c0,2.42,0,4.77,0,7.18c1.64,0,3.21,0,4.78,0c0,0.76,0,1.53,0,2.36
		c-2.44,0-4.8,0-7.22,0c0-3.97,0-7.91,0-11.94c3.14,0,6.31,0,9.59,0c0,1.52,0,3.08,0,4.71c0.83,0,1.56,0,2.47,0
		c0,0.86,0,1.65,0,2.44C14.76,29.24,14.79,29.2,14.79,29.2z"/>
	<path d="M24.41,5.09c0.76,0,1.53,0,2.4,0c0-0.82,0-1.57,0-2.37c0.86,0,1.6,0,2.42,0c0,0.76,0,1.48,0,2.28c0.82,0,1.56,0,2.42,0
		c0-0.73,0-1.48,0-2.28c1.66,0,3.21,0,4.81,0c0,0.76,0,1.48,0,2.31c-0.74,0-1.48,0-2.38,0c0,0.9,0,1.69,0,2.48
		c0,0,0.03-0.03,0.03-0.03c-1.6,0-3.19,0-4.87,0c0,1.73,0,3.3,0,4.87c0,0,0.03-0.03,0.03-0.03c-1.57,0-3.14,0-4.82,0
		c0,0.82,0,1.56,0,2.37c-0.86,0-1.6,0-2.4,0c0-2.37,0-4.7,0-7.14c0.73,0,1.48,0,2.39,0c0-0.9,0-1.69,0-2.48L24.41,5.09z"/>
	<path d="M38.92,19.6c0.76,0,1.53,0,2.41,0c0-0.82,0-1.57,0-2.37c0.84,0,1.55,0,2.4,0c0,1.53,0,3.08,0,4.75c0.86,0,1.61,0,2.41,0
		c0,0.84,0,1.55,0,2.39c-0.72,0-1.47,0-2.38,0c0,1.71,0,3.31,0,4.91c0,0,0.03-0.03,0.03-0.03c-0.82,0.01-1.63,0.02-2.45,0.03
		c0-0.79,0-1.58,0-2.47c-1.67,0-3.22,0-4.74,0c0-0.86,0-1.6,0-2.41c1.61,0,3.13,0,4.69,0c0-0.82,0-1.56,0-2.42
		c-0.81,0-1.55,0-2.34,0c0-0.88,0-1.64,0-2.4L38.92,19.6z"/>
	<path d="M53.47,31.7c0-0.76,0-1.53,0-2.36c1.6,0,3.15,0,4.81,0c0,0.75,0,1.5,0,2.32c1.64,0,3.16,0,4.77,0c0,1.62,0,3.17,0,4.85
		c-0.77,0-1.56,0-2.35,0l0.03,0.03c0-0.79,0-1.57,0-2.46c-1.7,0-3.24,0-4.9,0c0-0.85,0-1.59,0-2.4c-0.87,0-1.63,0-2.39,0L53.47,31.7
		z"/>
	<path d="M29.27,48.59c-0.76,0-1.52,0-2.4,0c0-0.78,0-1.52,0-2.38c-1.66,0-3.2,0-4.86,0c0-1.7,0-3.29,0-4.88l-0.03,0.03
		c0.82,0,1.63,0,2.45,0l-0.03-0.03c0,0.79,0,1.58,0,2.48c1.7,0,3.25,0,4.84,0c0,1.68,0,3.25,0,4.81L29.27,48.59z"/>
	<path d="M19.52,41.3c0,0.76,0,1.53,0,2.38c-2.32,0-4.68,0-7.22,0c0-1.54,0-3.13,0-4.72c0,0-0.03,0.04-0.03,0.04
		c0.79,0,1.58,0,2.45,0c0,0.76,0,1.48,0,2.34c1.66,0,3.25,0,4.84,0C19.56,41.34,19.52,41.3,19.52,41.3z"/>
	<path d="M51.05,24.44c0-0.76,0-1.53,0-2.36c2.4,0,4.75,0,7.23,0c0,0.78,0,1.57,0,2.36l0.03-0.03c-2.43,0-4.86,0-7.29,0.01
		C51.02,24.41,51.05,24.44,51.05,24.44z"/>
	<path d="M60.71,36.5c0,0.82,0,1.63,0,2.45c0,0,0.03-0.03,0.03-0.03c-1.59,0-3.19,0-4.78,0c0-0.86,0-1.6,0-2.39
		c1.64,0,3.21,0,4.78,0L60.71,36.5z"/>
	<path d="M7.47,38.95c0.8-0.01,1.6-0.03,2.41-0.04c0,0-0.04-0.03-0.04-0.03c0,1.57,0,3.14,0,4.8c-0.72,0-1.47,0-2.34,0
		c0-1.57,0-3.17,0-4.76L7.47,38.95z"/>
	<path d="M7.5,38.92c-0.82,0-1.63,0-2.45-0.01l0.03,0.03c0-0.76,0-1.52,0-2.36c0.78,0,1.52,0,2.39,0c0,0.79,0,1.57,0,2.36
		C7.47,38.95,7.5,38.92,7.5,38.92z"/>
	<path d="M12.3,36.51c-0.01,0.83-0.02,1.66-0.03,2.49c0,0,0.03-0.03,0.03-0.03c-0.82-0.02-1.64-0.05-2.46-0.08
		c0,0,0.03,0.03,0.03,0.03c0-0.76,0-1.51,0-2.38c0.89,0,1.67,0,2.46,0C12.33,36.54,12.3,36.51,12.3,36.51z"/>
	<path d="M19.59,38.92c-0.76,0-1.52,0-2.36,0c0-0.78,0-1.52,0-2.39c0.78,0,1.57,0,2.36,0c0,0-0.03-0.03-0.03-0.03
		c0,0.82,0,1.63,0,2.45L19.59,38.92z"/>
	<path d="M5.05,38.92c0,0.76,0,1.52,0,2.36c-0.78,0-1.52,0-2.33,0c0-0.73,0-1.47,0-2.33c0.79,0,1.58,0,2.37,0
		C5.08,38.95,5.05,38.92,5.05,38.92z"/>
	<path d="M22.02,41.34c-0.83-0.01-1.66-0.02-2.5-0.04c0,0,0.03,0.03,0.03,0.03c0.01-0.81,0.03-1.61,0.04-2.41
		c0,0-0.03,0.03-0.03,0.03c0.82,0,1.63,0,2.45,0l-0.03-0.03c0,0.82,0,1.63,0,2.45L22.02,41.34z"/>
	<path d="M19.6,34.08c-0.76,0-1.53,0-2.42,0c0-0.84,0-1.63,0-2.42l-0.03,0.03c0.79,0,1.58,0,2.42,0c0,0.89,0,1.66,0,2.42L19.6,34.08
		z"/>
	<path d="M17.18,31.67c-0.76,0-1.51,0-2.39,0c0-0.84,0-1.65,0-2.46c0,0-0.03,0.03-0.03,0.03c0.81,0.01,1.61,0.03,2.42,0.04
		c0,0-0.03-0.03-0.03-0.03c0,0.82,0,1.63,0,2.45L17.18,31.67z"/>
	<path d="M58.28,24.44c0.82,0,1.63,0,2.45,0.01l-0.03-0.03c0,0.76,0,1.52,0,2.36c-0.78,0-1.52,0-2.39,0c0-0.79,0-1.57,0-2.36
		C58.31,24.41,58.28,24.44,58.28,24.44z"/>
	<path d="M29.27,51.05c0-0.82,0-1.63,0-2.45c0,0-0.03,0.03-0.03,0.03c0.79,0,1.58,0,2.36,0c0,0.86,0,1.61,0,2.39
		c-0.84,0-1.6,0-2.36,0L29.27,51.05z"/>
	<path d="M60.73,24.44c0-0.76,0-1.52,0-2.36c0.78,0,1.52,0,2.33,0c0,0.73,0,1.47,0,2.33c-0.79,0-1.58,0-2.37,0
		C60.7,24.41,60.73,24.44,60.73,24.44z"/>
	<path d="M19.6,24.41c-0.76,0-1.52,0-2.36,0c0-0.78,0-1.52,0-2.33c0.73,0,1.47,0,2.33,0c0,0.79,0,1.58,0,2.36
		C19.57,24.44,19.6,24.41,19.6,24.41z"/>
	<path d="M22.02,19.52c0-0.79,0-1.49,0-2.26c0.76,0,1.5,0,2.32,0c0,0.71,0,1.45,0,2.26C23.6,19.52,22.86,19.52,22.02,19.52z"/>
	<path d="M24.44,5.06c-0.76,0-1.52,0-2.36,0c0-0.78,0-1.52,0-2.33c0.73,0,1.47,0,2.33,0c0,0.79,0,1.58,0,2.36
		C24.41,5.09,24.44,5.06,24.44,5.06z"/>
	<path d="M12.33,36.54c0-0.76,0-1.52,0-2.36c0.78,0,1.52,0,2.33,0c0,0.73,0,1.47,0,2.33c-0.79,0-1.58,0-2.37,0
		C12.3,36.51,12.33,36.54,12.33,36.54z"/>
	<path class="st0" d="M29.24,51.01c0.76,0,1.52,0,2.36,0c0-0.78,0-1.52,0-2.39c-0.78,0-1.57,0-2.36,0c0-1.57,0-3.13,0-4.81
		c-1.59,0-3.14,0-4.84,0c0-0.9,0-1.69,0-2.48c0.76,0,1.53,0,2.36,0c0-1.6,0-3.15,0-4.78c-0.74,0-1.46,0-2.26,0c0-0.82,0-1.57,0-2.44
		c1.57,0,3.17,0,4.77,0l-0.03-0.03c0,2.4,0,4.8,0,7.25c0.92,0,1.68,0,2.45,0c0,0.79,0,1.57,0,2.36c0.86,0,1.6,0,2.33,0
		c0-0.81,0-1.56,0-2.33c-0.84,0-1.6,0-2.36,0c0-1.6,0-3.19,0-4.87c0.92,0,1.69,0,2.45,0c0,0.79,0,1.57,0,2.36c0.86,0,1.6,0,2.33,0
		c0-0.81,0-1.56,0-2.33c-0.84,0-1.6,0-2.36,0c0-0.79,0-1.58,0-2.42c1.74,0,3.31,0,4.87,0l-0.03-0.03c0,0.79,0,1.58,0,2.45
		c0.92,0,1.69,0,2.45,0l-0.03-0.03c0,0.76,0,1.53,0,2.41c-0.79,0-1.54,0-2.36,0c0,0.83,0,1.55,0,2.39c-0.82,0-1.57,0-2.39,0
		c0,0.86,0,1.6,0,2.43c1.54,0,3.06,0,4.68,0c0,1.63,0,3.17,0,4.8c-0.71,0-1.45,0-2.32,0c0-0.74,0-1.49,0-2.29c-1.64,0-3.17,0-4.77,0
		c0,2.35,0,4.71,0,7.13c1.54,0,3.09,0,4.72,0c0-0.74,0-1.46,0-2.27c0.82,0,1.57,0,2.47,0c0,1.58,0,3.17,0,4.77
		c-1.57,0-3.14,0-4.82,0c0,0.79,0,1.54,0,2.34c-3.28,0-6.44,0-9.66,0c0-0.76,0-1.47,0-2.31c0.73,0,1.48,0,2.35,0
		C29.24,54.2,29.24,52.61,29.24,51.01z"/>
	<path class="st0" d="M50.96,50.98c-2.41,0-4.74,0-7.12,0c0-2.38,0-4.7,0-7.12c2.33,0,4.69,0,7.12,0
		C50.96,46.18,50.96,48.54,50.96,50.98z M46.25,48.55c0.8,0,1.54,0,2.29,0c0-0.81,0-1.55,0-2.27c-0.82,0-1.56,0-2.29,0
		C46.25,47.08,46.25,47.79,46.25,48.55z"/>
	<path class="st0" d="M60.74,36.53c-1.57,0-3.13,0-4.78,0c0,0.78,0,1.53,0,2.39c1.59,0,3.18,0,4.78,0c0,0.76,0,1.53,0,2.36
		c-2.43,0-4.79,0-7.29,0c0-3.21,0-6.41,0-9.62c0.76,0,1.52,0,2.39,0c0,0.81,0,1.55,0,2.4c1.65,0,3.2,0,4.9,0
		C60.74,34.96,60.74,35.75,60.74,36.53z"/>
	<path class="st0" d="M41.35,29.28c0.82-0.01,1.63-0.02,2.45-0.03c0,2.38,0,4.75,0,7.26c-0.87,0-1.66,0-2.45,0
		c0,0,0.03,0.03,0.03,0.03c0-0.79,0-1.58,0-2.45c-0.92,0-1.69,0-2.45,0l0.03,0.03c0-0.82,0-1.63,0-2.45l-0.03,0.03
		c0.79,0,1.58,0,2.45,0c0-0.92,0-1.69,0-2.45L41.35,29.28z"/>
	<path class="st0" d="M48.63,60.72c0-2.37,0-4.74,0-7.19c0.78,0,1.52,0,2.33,0c0,2.33,0,4.68,0,7.16c-0.79,0-1.58,0-2.37,0
		C48.6,60.69,48.63,60.72,48.63,60.72z"/>
	<path class="st0" d="M55.81,60.65c-0.8,0-1.52,0-2.29,0c0-1.57,0-3.09,0-4.7c0.73,0,1.47,0,2.29,0
		C55.81,57.48,55.81,59.02,55.81,60.65z"/>
	<path class="st0" d="M48.64,38.95c0-0.76,0-1.52,0-2.35c0.78,0,1.52,0,2.33,0c0,0.73,0,1.47,0,2.32c-0.79,0-1.57,0-2.36,0
		L48.64,38.95z"/>
	<path class="st0" d="M48.61,38.92c0,0.76,0,1.52,0,2.36c-0.78,0-1.52,0-2.33,0c0-0.73,0-1.47,0-2.33c0.79,0,1.58,0,2.37,0
		C48.64,38.95,48.61,38.92,48.61,38.92z"/>
	<path class="st0" d="M60.63,46.15c-0.77,0-1.48,0-2.27,0c0-0.78,0-1.52,0-2.32c0.74,0,1.46,0,2.27,0
		C60.63,44.55,60.63,45.29,60.63,46.15z"/>
	<path class="st0" d="M43.79,55.89c0-0.76,0-1.52,0-2.36c0.78,0,1.52,0,2.33,0c0,0.73,0,1.47,0,2.33c-0.79,0-1.58,0-2.37,0
		C43.76,55.85,43.79,55.89,43.79,55.89z"/>
	<path class="st0" d="M38.96,19.57c0,0.76,0,1.52,0,2.4c0.79,0,1.53,0,2.34,0c0,0.86,0,1.6,0,2.42c-1.56,0-3.08,0-4.69,0
		c0,0.81,0,1.56,0,2.41c1.52,0,3.07,0,4.74,0c0,0.9,0,1.69,0,2.47c0,0,0.03-0.03,0.03-0.03c-0.79,0-1.58,0-2.45,0
		c0,0.92,0,1.69,0,2.45l0.03-0.03c-0.79,0-1.58,0-2.47,0c0-0.86,0-1.61,0-2.42c-0.87,0-1.64,0-2.4,0l0.03,0.03
		c0-3.99,0-7.97,0-12.13c-0.87,0-1.66,0-2.45,0l0.03,0.03c0-0.76,0-1.52,0-2.36c1.58,0,3.13,0,4.79,0c0,1.54,0,3.08,0,4.75
		C37.38,19.57,38.17,19.57,38.96,19.57z"/>
	<path class="st0" d="M17.14,31.7c0-0.82,0-1.63,0-2.45c2.38,0,4.75,0,7.2,0c0,0.83,0,1.57,0,2.39c-0.73,0-1.46,0-2.29,0
		c0,0.82,0,1.57,0,2.47c-0.9,0-1.7,0-2.49,0c0-0.76,0-1.53,0-2.42C18.73,31.7,17.94,31.7,17.14,31.7z"/>
	<path class="st0" d="M29.24,12.35c0-1.57,0-3.14,0-4.87c1.68,0,3.27,0,4.87,0c0,0.76,0,1.52,0,2.39c-0.81,0-1.55,0-2.4,0
		c0,0.85,0,1.59,0,2.48C30.82,12.35,30.03,12.35,29.24,12.35z"/>
	<path class="st0" d="M29.27,34.12c0-1.57,0-3.14,0-4.84c1.65,0,3.24,0,4.84,0c0,0-0.03-0.03-0.03-0.03c0,0.79,0,1.57,0,2.47
		c-0.86,0-1.6,0-2.45,0c0,0.85,0,1.6,0,2.37c-0.87,0-1.63,0-2.39,0L29.27,34.12z"/>
	<path class="st0" d="M31.67,17.15c0,1.56,0,3.13,0,4.77c-0.78,0-1.52,0-2.33,0c0-1.53,0-3.07,0-4.74c0.79,0,1.58,0,2.37,0
		C31.7,17.18,31.67,17.15,31.67,17.15z"/>
	<path class="st0" d="M22.02,38.95c-0.82,0-1.63,0-2.45,0c0-0.82,0-1.63,0-2.45c0.76,0,1.53,0,2.45,0
		C22.02,37.37,22.02,38.16,22.02,38.95z"/>
	<path class="st0" d="M21.98,41.37c0-0.82,0-1.63,0-2.45c0.76,0,1.53,0,2.45,0c0,0.87,0,1.66,0,2.45
		C23.62,41.37,22.8,41.37,21.98,41.37z"/>
	<path class="st0" d="M31.62,26.79c-0.77,0-1.49,0-2.28,0c0-0.75,0-1.49,0-2.3c0.74,0,1.48,0,2.28,0
		C31.62,25.23,31.62,25.95,31.62,26.79z"/>
	<path class="st0" d="M48.7,5.12c4.02,0,7.96,0,11.96,0c0,3.99,0,7.93,0,11.96c-3.95,0-7.91,0-11.96,0
		C48.7,13.15,48.7,9.18,48.7,5.12z M58.22,14.7c0-2.44,0-4.8,0-7.12c-2.43,0-4.79,0-7.12,0c0,2.42,0,4.74,0,7.12
		C53.49,14.7,55.81,14.7,58.22,14.7z"/>
	<path class="st0" d="M5.11,17.09c0-4.02,0-7.96,0-11.96c3.99,0,7.93,0,11.96,0c0,3.95,0,7.91,0,11.96
		C13.13,17.09,9.16,17.09,5.11,17.09z M14.66,14.7c0-2.44,0-4.8,0-7.12c-2.43,0-4.79,0-7.12,0c0,2.42,0,4.74,0,7.12
		C9.93,14.7,12.26,14.7,14.66,14.7z"/>
	<path class="st0" d="M5.14,48.66c4.02,0,7.96,0,11.96,0c0,3.99,0,7.93,0,11.96c-3.95,0-7.92,0-11.96,0
		C5.14,56.68,5.14,52.71,5.14,48.66z M14.69,51.11c-2.44,0-4.8,0-7.12,0c0,2.43,0,4.79,0,7.12c2.42,0,4.75,0,7.12,0
		C14.69,55.84,14.69,53.51,14.69,51.11z"/>
	<path class="st0" d="M9.92,31.67c-1.57,0-3.14,0-4.78,0c0-2.4,0-4.75,0-7.18c0.75,0,1.49,0,2.31,0c0,1.56,0,3.08,0,4.72
		c0.82,0,1.56,0,2.44,0c0,0.9,0,1.69,0,2.49C9.89,31.7,9.92,31.67,9.92,31.67z"/>
	<path d="M29.24,34.08c0.76,0,1.52,0,2.39,0c0-0.78,0-1.52,0-2.37c0.85,0,1.59,0,2.45,0c0-0.89,0-1.68,0-2.47c0.76,0,1.52,0,2.4,0
		c0,0.81,0,1.56,0,2.42c0.9,0,1.69,0,2.47,0c0,0.82,0,1.63,0,2.45c-1.57,0-3.14,0-4.87,0c0,0.84,0,1.63,0,2.42l0.03-0.03
		c-0.76,0-1.53,0-2.45,0c0,1.68,0,3.27,0,4.87l0.03-0.03c-0.76,0-1.53,0-2.45,0C29.24,38.89,29.24,36.49,29.24,34.08z"/>
	<path d="M34.08,36.53c0.76,0,1.52,0,2.36,0c0,0.78,0,1.52,0,2.33c-0.73,0-1.47,0-2.33,0c0-0.79,0-1.58,0-2.36
		C34.11,36.5,34.08,36.53,34.08,36.53z"/>
	<path d="M38.92,34.08c0.76,0,1.53,0,2.45,0c0,0.87,0,1.66,0,2.45c-0.76,0-1.53,0-2.45,0C38.92,35.67,38.92,34.87,38.92,34.08z"/>
	<path d="M31.66,41.37c0.76,0,1.52,0,2.36,0c0,0.78,0,1.52,0,2.33c-0.73,0-1.47,0-2.33,0c0-0.79,0-1.58,0-2.36
		C31.69,41.34,31.66,41.37,31.66,41.37z"/>
	<path d="M46.25,48.55c0-0.76,0-1.47,0-2.27c0.73,0,1.47,0,2.29,0c0,0.72,0,1.46,0,2.27C47.79,48.55,47.05,48.55,46.25,48.55z"/>
	<path d="M38.92,31.7c0-0.76,0-1.53,0-2.45c0.87,0,1.66,0,2.45,0c0,0.76,0,1.53,0,2.45C40.51,31.7,39.72,31.7,38.92,31.7z"/>
	<path d="M58.22,14.7c-2.41,0-4.74,0-7.12,0c0-2.38,0-4.7,0-7.12c2.33,0,4.69,0,7.12,0C58.22,9.91,58.22,12.26,58.22,14.7z"/>
	<path d="M14.66,14.7c-2.41,0-4.74,0-7.12,0c0-2.38,0-4.7,0-7.12c2.33,0,4.69,0,7.12,0C14.66,9.91,14.66,12.26,14.66,14.7z"/>
	<path d="M14.69,51.11c0,2.41,0,4.73,0,7.12c-2.38,0-4.71,0-7.12,0c0-2.33,0-4.69,0-7.12C9.89,51.11,12.25,51.11,14.69,51.11z"/>
</g>
</svg>
