<?xml version="1.0" encoding="utf-8"?>
<!-- Generator: Adobe Illustrator 23.0.2, SVG Export Plug-In . SVG Version: 6.00 Build 0)  -->
<svg version="1.1" id="圖層_1" xmlns="http://www.w3.org/2000/svg" xmlns:xlink="http://www.w3.org/1999/xlink" x="0px" y="0px"
	 viewBox="0 0 66 66" style="enable-background:new 0 0 66 66;" xml:space="preserve">
<style type="text/css">
	.st0{fill:#FFFFFF;}
	.st1{fill:#006633;}
</style>
<g>
	<path class="st0" d="M66,65.98c-22,0-44,0-66,0C0,43.99,0,22.01,0,0.02c22,0,44,0,66,0C66,22.01,66,43.99,66,65.98z M22.01,24.44
		c-0.82,0-1.63,0-2.45,0c0-0.79,0-1.57,0-2.36c-0.86,0-1.6,0-2.33,0c0,0.81,0,1.56,0,2.33c0.84,0,1.6,0,2.36,0c0,0.82,0,1.63,0,2.45
		c-0.79,0-1.58,0-2.36,0c0,0.86,0,1.6,0,2.39c0.84,0,1.6,0,2.36,0c0,0.79,0,1.58,0,2.49c-2.52,0-4.88,0-7.22,0c0,0.89,0,1.65,0,2.42
		c-0.82-0.04-1.63-0.07-2.52-0.11c0-0.83,0-1.54,0-2.29c-0.86,0-1.65,0-2.43,0c0.01-0.83,0.02-1.66,0.04-2.5c2.4,0,4.8,0,7.19,0
		c0-0.86,0-1.6,0-2.46c-1.63,0-3.18,0-4.7,0c0-0.84,0-1.55,0-2.39c0.81,0,1.55,0,2.27,0c0-0.86,0-1.6,0-2.34c-3.22,0-6.35,0-9.53,0
		c0,1.6,0,3.15,0,4.81c1.61,0,3.16,0,4.8,0c0,0.88,0,1.64,0,2.4c-0.79,0-1.57,0-2.37,0c0,0.85,0,1.59,0,2.43c0.82,0,1.58,0,2.33,0
		c0,0.78,0,1.56,0,2.45c-0.88,0-1.62,0-2.38,0c0,1.67,0,3.23,0,4.79c-0.79,0-1.58,0-2.37,0c0,0.86,0,1.6,0,2.33
		c0.82,0,1.56,0,2.33,0c0-0.84,0-1.6,0-2.36c0.79,0,1.58,0,2.47,0c0,1.71,0,3.26,0,4.77c0.86,0,1.6,0,2.41,0c0-2.41,0-4.74,0-7.17
		c0.81,0,1.56,0,2.41,0c0-0.87,0-1.63,0-2.39c0.78,0,1.56,0,2.44,0c0,0.87,0,1.61,0,2.42c0.87,0,1.62,0,2.38,0l-0.03-0.03
		c0,0.79,0,1.58,0,2.48c1.72,0,3.27,0,4.8,0c0,0.84,0,1.56,0,2.29c-2.42,0-4.78,0-7.25,0c0-0.82,0-1.57,0-2.28
		c-0.84,0-1.56,0-2.29,0c0,1.61,0,3.16,0,4.83c3.24,0,6.41,0,9.65,0c0,0.84,0,1.56,0,2.29c0.83,0,1.57,0,2.36,0
		c0-4.06,0-8.05,0-12.04c1.62,0,3.25,0,4.87,0c0,1.59,0,3.19,0,4.9c-0.9,0-1.64,0-2.35,0c0,1.67,0,3.21,0,4.73c0.81,0,1.53,0,2.36,0
		c0-0.8,0-1.55,0-2.38c0.88,0,1.64,0,2.4,0c0,0.79,0,1.57,0,2.36c0.86,0,1.6,0,2.33,0c0-0.81,0-1.56,0-2.33c-0.84,0-1.6,0-2.36,0
		c0-1.6,0-3.19,0-4.77c0.91,0,1.65,0,2.48,0c0,0.8,0,1.52,0,2.36c0.82,0,1.57,0,2.43,0c0,1.67,0,3.22,0,4.85c1.64,0,3.17,0,4.73,0
		c0,1.63,0,3.18,0,4.73c-0.81,0-1.56,0-2.38,0c0-0.8,0-1.52,0-2.27c-1.63,0-3.18,0-4.74,0c0,2.42,0,4.77,0,7.11
		c1.63,0,3.18,0,4.81,0c0-0.81,0-1.53,0-2.26c0.82,0,1.57,0,2.4,0c0,1.64,0,3.21,0,4.78c-1.6,0-3.19,0-4.9,0c0,0.87,0,1.61,0,2.47
		c-2.47,0-4.83,0-7.16,0c0,1.64,0,3.16,0,4.7c0.81,0,1.55,0,2.41,0c0-0.81,0-1.56,0-2.38c2.45,0,4.78,0,7.22,0c0-0.82,0-1.56,0-2.42
		c0.86,0,1.61,0,2.4,0c0-0.88,0-1.64,0-2.41c0.82,0.01,1.63,0.03,2.45,0.04l-0.03-0.03c0,1.59,0,3.19,0,4.87c1.73,0,3.3,0,4.87,0
		l-0.03-0.03c0,0.79,0,1.58,0,2.34c4.95,0,9.73,0,14.48,0c0-0.81,0-1.53,0-2.36c-1.61,0-3.17,0-4.69,0c0-0.87,0-1.61,0-2.43
		c0.81,0,1.53,0,2.37,0c0-0.82,0-1.57,0-2.39c0.84,0,1.56,0,2.32,0c0-0.83,0-1.57,0-2.43c-0.81,0-1.56,0-2.38,0
		c0-0.84,0-1.56,0-2.32c-0.83,0-1.57,0-2.43,0c0,0.81,0,1.56,0,2.3c-0.84,0-1.56,0-2.4,0c0-0.8,0-1.55,0-2.41c-0.86,0-1.61,0-2.35,0
		c0-2.45,0-4.78,0-7.14c0.8,0,1.55,0,2.41,0c0,1.62,0,3.17,0,4.71c2.45,0,4.79,0,7.14,0c0-3.22,0-6.39,0-9.6c-0.83,0-1.6,0-2.36,0
		c0-0.82,0-1.63,0-2.45c0.79,0,1.58,0,2.35,0c0-1.68,0-3.22,0-4.85c-1.61,0-3.13,0-4.77,0c0-0.82,0-1.57,0-2.32
		c-1.67,0-3.22,0-4.81,0c0,0.84,0,1.6,0,2.36c-0.79,0-1.58,0-2.49,0c0,0.87,0,1.62,0,2.34c-0.84,0-1.56,0-2.29,0
		c0-1.61,0-3.16,0-4.83c0.82,0,1.56,0,2.29,0c0-1.69,0-3.26,0-4.83c2.46,0,4.91-0.01,7.37-0.01c0,0.79,0,1.59,0,2.41
		c0.81,0,1.56,0,2.35,0c0-0.83,0-1.6,0-2.36c0.79,0,1.58,0,2.37,0c0-0.86,0-1.6,0-2.33c-0.82,0-1.56,0-2.33,0c0,0.84,0,1.6,0,2.36
		c-0.8-0.02-1.61-0.03-2.41-0.05c0-0.76,0-1.52,0-2.33c-2.48,0-4.83,0-7.31,0c0,0.82,0,1.58,0,2.34c-0.78,0-1.57,0-2.43,0
		c0,0.91,0,1.63,0,2.46c-0.82,0-1.56,0-2.42,0c0,0.86,0,1.6,0,2.42c-0.88,0-1.64,0-2.4,0c0-1.62,0-3.25,0-4.87c0.79,0,1.58,0,2.36,0
		c0-0.86,0-1.61,0-2.39c-0.84,0-1.6,0-2.36,0c0-1.59,0-3.18,0-4.78c-0.85,0-1.59,0-2.44,0c0,0.81,0,1.56,0,2.36
		c-0.87,0-1.63,0-2.4,0c0-1.6,0-3.19,0-4.91c0.91,0,1.66,0,2.48,0c0-0.84,0-1.56,0-2.39c0.82,0,1.57,0,2.3,0c0-2.48,0-4.83,0-7.17
		c-0.8,0-1.52,0-2.36,0c0,1.61,0,3.16,0,4.69c-0.87,0-1.61,0-2.43,0c0-2.42,0-4.75,0-7.1c-0.83,0-1.57,0-2.43,0
		c0,0.82,0,1.56,0,2.29c-0.84,0-1.56,0-2.39,0c0-0.8,0-1.55,0-2.28c-0.87,0-1.61,0-2.43,0c0,0.8,0,1.52,0,2.26
		c-0.83,0-1.57,0-2.43,0c0-0.82,0-1.56,0-2.29c-0.84,0-1.56,0-2.39,0c0,0.8,0,1.55,0,2.38c-0.88,0-1.65,0-2.41,0
		c0-0.79,0-1.57,0-2.36c-0.86,0-1.6,0-2.33,0c0,0.82,0,1.56,0,2.33c0.84,0,1.6,0,2.36,0c0,0.79,0,1.58,0,2.48c-0.91,0-1.65,0-2.39,0
		c0,2.44,0,4.77,0,7.14c0.8,0,1.54,0,2.4,0c0-0.81,0-1.55,0-2.34c1.69,0,3.25,0,4.82,0l-0.03-0.03c0,0.79,0,1.58,0,2.48
		c-0.87,0-1.61,0-2.45,0c0,4.07,0,8.03,0,12.06c-1.67,0-3.24,0-4.8,0c0-0.82,0-1.63,0-2.45c0.79,0,1.58,0,2.37,0
		c0-0.86,0-1.6,0-2.33c-0.82,0-1.56,0-2.33,0C22.01,22.92,22.01,23.68,22.01,24.44z M2.69,19.51c5.67,0,11.25,0,16.8,0
		c0-5.66,0-11.24,0-16.79c-5.64,0-11.2,0-16.8,0C2.69,8.33,2.69,13.88,2.69,19.51z M63.09,2.72c-5.69,0-11.24,0-16.82,0
		c0,5.64,0,11.22,0,16.79c5.65,0,11.24,0,16.82,0C63.09,13.87,63.09,8.32,63.09,2.72z M19.53,46.25c-5.69,0-11.24,0-16.82,0
		c0,5.64,0,11.22,0,16.79c5.65,0,11.24,0,16.82,0C19.53,57.41,19.53,51.86,19.53,46.25z M26.75,63.08c0-1.66,0-3.21,0-4.84
		c-0.81,0-1.53,0-2.36,0c0-1.63,0-3.18,0-4.74c-0.84,0-1.56,0-2.33,0c0,3.21,0,6.37,0,9.58C23.65,63.08,25.18,63.08,26.75,63.08z
		 M31.63,48.69c-2.45,0-4.8,0-7.13,0c0,0.82,0,1.56,0,2.38c0.8,0,1.52,0,2.35,0c0,1.62,0,3.17,0,4.72c0.86,0,1.6,0,2.46,0
		c0-1.63,0-3.18,0-4.8c0.83,0,1.55,0,2.32,0C31.63,50.2,31.63,49.48,31.63,48.69z M22.06,17.22c0,0.8,0,1.54,0,2.29
		c0.81,0,1.55,0,2.27,0c0-0.82,0-1.56,0-2.29C23.54,17.22,22.82,17.22,22.06,17.22z"/>
	<path d="M48.63,60.72c-1.57,0-3.14,0-4.87,0c0-1.68,0-3.27,0-4.87c0.79,0,1.58,0,2.37,0c0-0.86,0-1.6,0-2.33c-0.82,0-1.56,0-2.33,0
		c0,0.84,0,1.6,0,2.36c-0.82-0.01-1.63-0.03-2.45-0.04l0.03,0.03c0-1.57,0-3.14,0-4.78c-0.83,0-1.57,0-2.4,0c0,0.73,0,1.45,0,2.26
		c-1.63,0-3.18,0-4.81,0c0-2.33,0-4.69,0-7.11c1.56,0,3.11,0,4.74,0c0,0.76,0,1.48,0,2.27c0.82,0,1.57,0,2.38,0c0-1.55,0-3.1,0-4.73
		c-1.56,0-3.08,0-4.73,0c0-1.63,0-3.18,0-4.85c-0.86,0-1.61,0-2.43,0c0-0.83,0-1.55,0-2.36c-0.82,0-1.57,0-2.48,0
		c0,1.57,0,3.17,0,4.77l0.03-0.03c-0.76,0-1.53,0-2.4,0c0,0.82,0,1.57,0,2.38c-0.83,0-1.55,0-2.36,0c0-1.52,0-3.06,0-4.73
		c0.7,0,1.45,0,2.35,0c0-1.71,0-3.3,0-4.9c0,0-0.03,0.03-0.03,0.03c0.79,0,1.58,0,2.47,0c0-0.89,0-1.64,0-2.45c0.87,0,1.64,0,2.4,0
		c0,0.79,0,1.58,0,2.36c0.86,0,1.61,0,2.39,0c0-0.84,0-1.6,0-2.36c0.82,0,1.64,0,2.45,0c0,0.79,0,1.58,0,2.47c0.86,0,1.61,0,2.42,0
		c0,0.87,0,1.63,0,2.39c-0.79,0-1.58,0-2.37,0c0,0.86,0,1.6,0,2.33c0.82,0,1.56,0,2.33,0c0-0.84,0-1.6,0-2.36c0.79,0,1.58,0,2.45,0
		c0-2.5,0-4.88,0-7.25l-0.03,0.03c0.76,0,1.52,0,2.4,0c0-0.82,0-1.56,0-2.42c0.86,0,1.6,0,2.42,0c0-0.83,0-1.55,0-2.46
		c0.86,0,1.64,0,2.43,0c0,0-0.04-0.03-0.04-0.03c0,1.57,0,3.14,0,4.83c-0.72,0-1.47,0-2.29,0c0,1.67,0,3.22,0,4.83
		c0.74,0,1.45,0,2.29,0c0-0.72,0-1.47,0-2.34c0.91,0,1.7,0,2.49,0l-0.03-0.03c0,3.2,0,6.41,0,9.62c2.5,0,4.86,0,7.29,0
		c0-0.84,0-1.6,0-2.36l-0.03,0.03c0.76,0,1.53,0,2.36,0c0,3.21,0,6.38,0,9.6c-2.36,0-4.69,0-7.14,0c0-1.54,0-3.09,0-4.71
		c-0.86,0-1.61,0-2.41,0c0,2.36,0,4.69,0,7.14c0.74,0,1.49,0,2.35,0c0,0.86,0,1.61,0,2.41c0.84,0,1.56,0,2.4,0c0-0.74,0-1.49,0-2.3
		c0.86,0,1.61,0,2.43,0c0,0.76,0,1.48,0,2.32c0.82,0,1.57,0,2.38,0c0,0.86,0,1.61,0,2.43c-0.76,0-1.48,0-2.32,0
		c0,0.82,0,1.57,0,2.39c-0.83,0-1.56,0-2.37,0c0,0.82,0,1.57,0,2.43c1.52,0,3.07,0,4.69,0c0,0.84,0,1.56,0,2.36
		c-4.75,0-9.53,0-14.48,0c0-0.76,0-1.55,0-2.34c0.79,0,1.58,0,2.37,0c0-2.48,0-4.83,0-7.16c-0.82,0-1.56,0-2.33,0
		C48.63,55.98,48.63,58.35,48.63,60.72z M48.61,38.92c0.79,0,1.57,0,2.36,0c0-0.85,0-1.59,0-2.32c-0.81,0-1.55,0-2.33,0
		c0,0.84,0,1.59,0,2.35c-0.79,0-1.58,0-2.37,0c0,0.86,0,1.6,0,2.33c0.82,0,1.56,0,2.33,0C48.61,40.44,48.61,39.68,48.61,38.92z
		 M50.98,50.98c0-2.46,0-4.79,0-7.13c-2.42,0-4.77,0-7.12,0c0,2.43,0,4.78,0,7.13C46.27,50.98,48.6,50.98,50.98,50.98z M53.52,55.92
		c0,1.6,0,3.15,0,4.71c0.81,0,1.55,0,2.28,0c0-1.62,0-3.17,0-4.71C55,55.92,54.28,55.92,53.52,55.92z M58.35,46.12
		c0.83,0,1.57,0,2.29,0c0-0.82,0-1.56,0-2.28c-0.8,0-1.52,0-2.29,0C58.35,44.6,58.35,45.32,58.35,46.12z"/>
	<path d="M24.41,5.09c0.76,0,1.53,0,2.41,0c0-0.83,0-1.58,0-2.38c0.83,0,1.55,0,2.39,0c0,0.73,0,1.47,0,2.29c0.86,0,1.61,0,2.43,0
		c0-0.74,0-1.46,0-2.26c0.82,0,1.57,0,2.43,0c0,0.73,0,1.47,0,2.28c0.84,0,1.55,0,2.39,0c0-0.73,0-1.47,0-2.29c0.86,0,1.61,0,2.43,0
		c0,2.35,0,4.68,0,7.1c0.82,0,1.57,0,2.43,0c0-1.53,0-3.08,0-4.69c0.84,0,1.56,0,2.36,0c0,2.34,0,4.69,0,7.17c-0.72,0-1.47,0-2.3,0
		c0,0.84,0,1.55,0,2.39c-0.82,0-1.57,0-2.48,0c0,1.71,0,3.31,0,4.91l0.03-0.03c-0.79,0-1.58,0-2.49,0c0-0.88,0-1.62,0-2.34
		c-0.89,0-1.65,0-2.42,0c0.01-0.83,0.02-1.66,0.03-2.49c0.79,0,1.58,0,2.37,0c0-0.86,0-1.6,0-2.33c-0.82,0-1.56,0-2.33,0
		c0,0.84,0,1.6,0,2.36c-0.79,0-1.58,0-2.42,0c0,0.89,0,1.65,0,2.42c-0.79,0-1.57,0-2.36,0c0,1.66,0,3.21,0,4.74
		c0.82,0,1.56,0,2.33,0c0-1.64,0-3.21,0-4.77c0.81,0.01,1.61,0.03,2.42,0.04c0.01,4.03,0.02,8.05,0.04,12.08c-1.6,0-3.19,0-4.87,0
		c0,1.7,0,3.27,0,4.84c0,0,0.03-0.03,0.03-0.03c-1.62,0-3.25,0-4.87,0c0,0,0.03,0.03,0.03,0.03c0-1.6,0-3.19,0-4.87
		c-0.92,0-1.69,0-2.45,0l0.03,0.03c0-0.82,0-1.63,0-2.45l-0.03,0.03c1.57,0,3.13,0,4.8,0c0-4.03,0-7.99,0-12.06
		c0.84,0,1.59,0,2.45,0c0-0.9,0-1.69,0-2.48c0.79,0,1.58,0,2.48,0c0-0.87,0-1.62,0-2.44c0.84,0,1.55,0,2.31,0c0-0.82,0-1.57,0-2.31
		c-1.62,0-3.17,0-4.76,0c0,1.64,0,3.21,0,4.78c-1.57,0-3.14,0-4.82,0c0,0.78,0,1.53,0,2.34c-0.86,0-1.6,0-2.4,0c0-2.37,0-4.7,0-7.14
		c0.74,0,1.48,0,2.39,0c0-0.9,0-1.69,0-2.48L24.41,5.09z M29.34,24.47c0,0.83,0,1.57,0,2.28c0.82,0,1.56,0,2.29,0
		c0-0.8,0-1.52,0-2.28C30.85,24.47,30.13,24.47,29.34,24.47z"/>
	<path d="M2.69,19.51c0-5.63,0-11.18,0-16.79c5.6,0,11.16,0,16.8,0c0,5.56,0,11.14,0,16.79C13.94,19.51,8.36,19.51,2.69,19.51z
		 M17.08,17.12c0-4.05,0-8.02,0-11.96c-4.05,0-8.02,0-11.96,0c0,4.03,0,7.97,0,11.96C9.12,17.12,13.06,17.12,17.08,17.12z"/>
	<path d="M63.09,2.72c0,5.6,0,11.15,0,16.79c-5.58,0-11.16,0-16.82,0c0-5.57,0-11.15,0-16.79C51.85,2.72,57.4,2.72,63.09,2.72z
		 M48.7,5.12c0,4.06,0,8.02,0,11.96c4.05,0,8.02,0,11.96,0c0-4.03,0-7.97,0-11.96C56.66,5.12,52.72,5.12,48.7,5.12z"/>
	<path d="M19.53,46.25c0,5.6,0,11.15,0,16.79c-5.58,0-11.16,0-16.82,0c0-5.57,0-11.15,0-16.79C8.29,46.25,13.84,46.25,19.53,46.25z
		 M17.08,60.65c0-4.05,0-8.02,0-11.96c-4.05,0-8.02,0-11.97,0c0,4.03,0,7.97,0,11.96C9.12,60.65,13.06,60.65,17.08,60.65z"/>
	<path d="M17.17,36.54c-0.76,0-1.52,0-2.38,0c0-0.8,0-1.54,0-2.42c-0.89,0-1.66,0-2.45,0c0,0,0.04,0.03,0.04,0.03
		c0-0.77,0-1.53,0-2.42c2.33,0,4.69,0,7.22,0c0-0.9,0-1.7,0-2.49l-0.03,0.03c0.82,0,1.63,0,2.45,0l-0.03-0.03c0,1.6,0,3.19,0,4.87
		c0.92,0,1.69,0,2.45,0c0,0-0.03-0.03-0.03-0.03c0,3.99,0,7.97,0,12.04c-0.79,0-1.54,0-2.36,0c0-0.73,0-1.45,0-2.29
		c-3.24,0-6.41,0-9.65,0c0-1.67,0-3.22,0-4.83c0.73,0,1.45,0,2.29,0c0,0.72,0,1.46,0,2.28c2.48,0,4.83,0,7.25,0
		c0-0.73,0-1.45,0-2.29c-1.52,0-3.08,0-4.8,0c0-0.9,0-1.69,0-2.48c0.79,0,1.58,0,2.37,0c0-0.86,0-1.6,0-2.33c-0.82,0-1.56,0-2.33,0
		C17.17,35.02,17.17,35.78,17.17,36.54z"/>
	<path d="M7.5,29.27c0-0.76,0-1.53,0-2.4c-1.63,0-3.18,0-4.8,0c0-1.66,0-3.21,0-4.81c3.18,0,6.31,0,9.53,0c0,0.73,0,1.47,0,2.34
		c-0.72,0-1.47,0-2.27,0c0,0.83,0,1.55,0,2.39c1.52,0,3.07,0,4.7,0c0,0.86,0,1.6,0,2.46c-2.39,0-4.79,0-7.19,0L7.5,29.27z"/>
	<path d="M5.08,38.95c0-1.56,0-3.12,0-4.79c0.76,0,1.5,0,2.38,0c0-0.89,0-1.67,0-2.45c0,0-0.03,0.04-0.03,0.04c0.79,0,1.58,0,2.43,0
		c0,0.75,0,1.47,0,2.29c0.88,0.04,1.7,0.08,2.52,0.11c0,0-0.03-0.03-0.03-0.03c0,0.76,0,1.52,0,2.39c-0.86,0-1.6,0-2.41,0
		c0,2.44,0,4.76,0,7.17c-0.81,0-1.55,0-2.41,0c0-1.51,0-3.06,0-4.77c-0.9,0-1.69,0-2.47,0L5.08,38.95z"/>
	<path d="M41.35,55.85c0,0.76,0,1.53,0,2.41c-0.79,0-1.54,0-2.4,0c0,0.86,0,1.6,0,2.42c-2.44,0-4.77,0-7.22,0c0,0.82,0,1.56,0,2.38
		c-0.86,0-1.6,0-2.41,0c0-1.54,0-3.06,0-4.7c2.33,0,4.68,0,7.16,0c0-0.86,0-1.6,0-2.47c1.71,0,3.31,0,4.9,0
		C41.38,55.88,41.35,55.85,41.35,55.85z"/>
	<path d="M26.75,63.08c-1.58,0-3.1,0-4.69,0c0-3.21,0-6.37,0-9.58c0.77,0,1.49,0,2.33,0c0,1.56,0,3.11,0,4.74c0.83,0,1.55,0,2.36,0
		C26.75,59.87,26.75,61.42,26.75,63.08z"/>
	<path d="M53.47,31.7c0-0.76,0-1.53,0-2.36c1.6,0,3.15,0,4.81,0c0,0.75,0,1.5,0,2.32c1.64,0,3.16,0,4.77,0c0,1.62,0,3.17,0,4.85
		c-0.77,0-1.56,0-2.35,0l0.03,0.03c0-0.79,0-1.57,0-2.46c-1.7,0-3.24,0-4.9,0c0-0.85,0-1.59,0-2.4c-0.87,0-1.63,0-2.39,0L53.47,31.7
		z"/>
	<path d="M31.63,48.69c0,0.79,0,1.51,0,2.3c-0.76,0-1.48,0-2.32,0c0,1.62,0,3.17,0,4.8c-0.86,0-1.6,0-2.46,0c0-1.54,0-3.09,0-4.72
		c-0.83,0-1.55,0-2.35,0c0-0.82,0-1.56,0-2.38C26.83,48.69,29.19,48.69,31.63,48.69z"/>
	<path d="M38.92,19.6c0.76,0,1.52,0,2.4,0c0-0.81,0-1.55,0-2.36c0.85,0,1.59,0,2.44,0c0,1.6,0,3.19,0,4.78c0,0,0.03-0.03,0.03-0.03
		c-1.62,0.01-3.25,0.02-4.87,0.03c0.01-0.82,0.02-1.63,0.03-2.45L38.92,19.6z"/>
	<path d="M58.35,24.36c-2.46,0-4.91,0.01-7.37,0.01c0,0,0.03,0.03,0.03,0.03c0-0.76,0-1.52,0-2.34c2.48,0,4.83,0,7.31,0
		c0,0.81,0,1.57,0,2.33C58.32,24.4,58.35,24.36,58.35,24.36z"/>
	<path d="M60.71,36.5c0,0.82,0,1.63,0,2.45c0,0,0.03-0.03,0.03-0.03c-1.59,0-3.19,0-4.78,0c0-0.86,0-1.6,0-2.39
		c1.64,0,3.21,0,4.78,0L60.71,36.5z"/>
	<path d="M43.76,24.41c0,1.62,0,3.25,0,4.87c0,0,0.03-0.03,0.03-0.03c-0.82,0.01-1.63,0.02-2.45,0.03c0-1.6,0-3.19,0-4.84
		c0.92,0,1.69,0,2.45,0L43.76,24.41z"/>
	<path d="M19.6,29.25c-0.76,0-1.52,0-2.36,0c0-0.78,0-1.52,0-2.39c0.78,0,1.57,0,2.36,0c0,0-0.03-0.03-0.03-0.03
		c0,0.82,0,1.63,0,2.45L19.6,29.25z"/>
	<path d="M60.7,24.41c0,0.76,0,1.53,0,2.36c-0.8,0-1.54,0-2.35,0c0-0.82,0-1.61,0-2.41c0,0-0.03,0.03-0.03,0.03
		c0.8,0.01,1.61,0.03,2.41,0.05L60.7,24.41z"/>
	<path d="M7.47,29.24c-0.01,0.83-0.02,1.66-0.04,2.5c0,0,0.03-0.03,0.03-0.03c-0.76,0-1.51,0-2.33,0c0-0.84,0-1.58,0-2.43
		c0.8,0,1.59,0,2.37,0C7.5,29.27,7.47,29.24,7.47,29.24z"/>
	<path d="M5.05,38.92c0,0.76,0,1.52,0,2.36c-0.78,0-1.52,0-2.33,0c0-0.73,0-1.47,0-2.33c0.79,0,1.58,0,2.37,0
		C5.08,38.95,5.05,38.92,5.05,38.92z"/>
	<path d="M31.66,41.37c0.76,0,1.52,0,2.36,0c0,0.78,0,1.52,0,2.33c-0.73,0-1.47,0-2.33,0c0-0.79,0-1.58,0-2.36
		C31.69,41.34,31.66,41.37,31.66,41.37z"/>
	<path d="M19.57,24.44c0.82,0,1.63,0,2.45,0l-0.03-0.03c0,0.82,0,1.63,0,2.45c0,0,0.03-0.03,0.03-0.03c-0.82,0-1.63,0-2.45,0
		c0,0,0.03,0.03,0.03,0.03c0-0.82,0-1.63,0-2.45L19.57,24.44z"/>
	<path d="M60.73,24.44c0-0.76,0-1.52,0-2.36c0.78,0,1.52,0,2.33,0c0,0.73,0,1.47,0,2.33c-0.79,0-1.58,0-2.37,0
		C60.7,24.41,60.73,24.44,60.73,24.44z"/>
	<path d="M43.76,22.02c0.76,0,1.52,0,2.36,0c0,0.78,0,1.52,0,2.39c-0.78,0-1.57,0-2.36,0c0,0,0.03,0.03,0.03,0.03
		c0-0.82,0-1.63,0-2.45L43.76,22.02z"/>
	<path d="M22.01,24.44c0-0.76,0-1.52,0-2.36c0.78,0,1.52,0,2.33,0c0,0.73,0,1.47,0,2.33c-0.79,0-1.58,0-2.37,0
		C21.98,24.41,22.01,24.44,22.01,24.44z"/>
	<path d="M19.6,24.41c-0.76,0-1.52,0-2.36,0c0-0.78,0-1.52,0-2.33c0.73,0,1.47,0,2.33,0c0,0.79,0,1.58,0,2.36
		C19.57,24.44,19.6,24.41,19.6,24.41z"/>
	<path d="M22.06,17.22c0.76,0,1.47,0,2.27,0c0,0.73,0,1.47,0,2.29c-0.72,0-1.47,0-2.27,0C22.06,18.76,22.06,18.02,22.06,17.22z"/>
	<path d="M24.44,5.06c-0.76,0-1.52,0-2.36,0c0-0.78,0-1.52,0-2.33c0.73,0,1.47,0,2.33,0c0,0.79,0,1.58,0,2.36
		C24.41,5.09,24.44,5.06,24.44,5.06z"/>
	<path class="st0" d="M50.98,50.98c-2.38,0-4.71,0-7.12,0c0-2.35,0-4.71,0-7.13c2.35,0,4.7,0,7.12,0
		C50.98,46.19,50.98,48.52,50.98,50.98z M46.25,46.23c0,0.84,0,1.55,0,2.31c0.8,0,1.54,0,2.3,0c0-0.81,0-1.55,0-2.31
		C47.76,46.23,47.04,46.23,46.25,46.23z"/>
	<path class="st0" d="M60.74,36.53c-1.57,0-3.13,0-4.78,0c0,0.78,0,1.53,0,2.39c1.59,0,3.18,0,4.78,0c0,0.76,0,1.53,0,2.36
		c-2.43,0-4.79,0-7.29,0c0-3.21,0-6.41,0-9.62c0.76,0,1.52,0,2.39,0c0,0.81,0,1.55,0,2.4c1.65,0,3.2,0,4.9,0
		C60.74,34.96,60.74,35.75,60.74,36.53z"/>
	<path class="st0" d="M41.35,29.28c0.82-0.01,1.63-0.02,2.45-0.03c0,2.37,0,4.75,0,7.25c-0.87,0-1.66,0-2.45,0l0.03,0.03
		c0-0.76,0-1.52,0-2.39c-0.82,0-1.56,0-2.42,0c0-0.9,0-1.68,0-2.47l-0.03,0.03c0.79,0,1.58,0,2.45,0c0-0.92,0-1.69,0-2.45
		L41.35,29.28z"/>
	<path class="st0" d="M48.63,60.72c0-2.37,0-4.74,0-7.19c0.78,0,1.52,0,2.33,0c0,2.33,0,4.68,0,7.16c-0.79,0-1.58,0-2.37,0
		C48.6,60.69,48.63,60.72,48.63,60.72z"/>
	<path class="st0" d="M29.24,34.11c0-1.57,0-3.14,0-4.84c1.68,0,3.27,0,4.87,0c0,0-0.03-0.03-0.03-0.03c0,0.82,0,1.63,0,2.45
		l0.03-0.03c-0.76,0-1.52,0-2.4,0c0,0.81,0,1.56,0,2.45C30.82,34.11,30.03,34.11,29.24,34.11z"/>
	<path class="st0" d="M53.52,55.92c0.76,0,1.48,0,2.28,0c0,1.54,0,3.09,0,4.71c-0.73,0-1.47,0-2.28,0
		C53.52,59.07,53.52,57.52,53.52,55.92z"/>
	<path class="st0" d="M36.5,31.67c0,0.76,0,1.52,0,2.36c-0.78,0-1.52,0-2.39,0c0-0.78,0-1.57,0-2.36c0,0-0.03,0.03-0.03,0.03
		c0.82,0,1.63,0,2.45,0L36.5,31.67z"/>
	<path class="st0" d="M41.35,36.5c0,0.76,0,1.52,0,2.36c-0.78,0-1.52,0-2.33,0c0-0.73,0-1.47,0-2.33c0.79,0,1.58,0,2.37,0
		C41.38,36.53,41.35,36.5,41.35,36.5z"/>
	<path class="st0" d="M48.64,38.95c0-0.76,0-1.52,0-2.35c0.78,0,1.52,0,2.33,0c0,0.73,0,1.47,0,2.32c-0.79,0-1.57,0-2.36,0
		L48.64,38.95z"/>
	<path class="st0" d="M48.61,38.92c0,0.76,0,1.52,0,2.36c-0.78,0-1.52,0-2.33,0c0-0.73,0-1.47,0-2.33c0.79,0,1.58,0,2.37,0
		C48.64,38.95,48.61,38.92,48.61,38.92z"/>
	<path class="st0" d="M58.35,46.12c0-0.79,0-1.51,0-2.28c0.76,0,1.48,0,2.29,0c0,0.72,0,1.46,0,2.28
		C59.92,46.12,59.18,46.12,58.35,46.12z"/>
	<path class="st0" d="M43.79,55.89c0-0.76,0-1.52,0-2.36c0.78,0,1.52,0,2.33,0c0,0.73,0,1.47,0,2.33c-0.79,0-1.58,0-2.37,0
		C43.76,55.85,43.79,55.89,43.79,55.89z"/>
	<path class="st0" d="M38.96,31.67c-0.82,0-1.64,0-2.45,0c0,0,0.03,0.03,0.03,0.03c0-0.82,0-1.63,0-2.45l-0.03,0.03
		c0.82,0,1.63,0,2.45,0l-0.03-0.03c0,0.82,0,1.63,0,2.45L38.96,31.67z"/>
	<path class="st0" d="M38.96,19.57c-0.01,0.82-0.02,1.63-0.03,2.45c0,0,0.03-0.03,0.03-0.03c-0.79,0-1.58,0-2.45,0
		c0,2.54,0,4.91,0,7.29l0.03-0.03c-0.82,0-1.63,0-2.45,0c0,0,0.03,0.03,0.03,0.03c-0.01-4.03-0.02-8.05-0.04-12.08
		c0,0-0.03,0.04-0.03,0.04c0.77,0,1.53,0,2.42,0c0,0.72,0,1.47,0,2.34C37.37,19.57,38.16,19.57,38.96,19.57z"/>
	<path class="st0" d="M29.27,12.35c0-1.57,0-3.14,0-4.78c1.59,0,3.14,0,4.76,0c0,0.75,0,1.49,0,2.31c-0.75,0-1.47,0-2.31,0
		c0,0.82,0,1.56,0,2.44c-0.9,0-1.69,0-2.48,0C29.24,12.32,29.27,12.35,29.27,12.35z"/>
	<path class="st0" d="M24.44,34.11c-0.76,0-1.53,0-2.45,0c0-1.67,0-3.27,0-4.87c0.76,0,1.53,0,2.45,0
		C24.44,30.92,24.44,32.52,24.44,34.11z"/>
	<path class="st0" d="M31.66,17.16c0,1.56,0,3.12,0,4.77c-0.77,0-1.51,0-2.33,0c0-1.53,0-3.07,0-4.74c0.79,0,1.57,0,2.36,0
		L31.66,17.16z"/>
	<path class="st0" d="M29.34,24.47c0.79,0,1.51,0,2.29,0c0,0.76,0,1.48,0,2.28c-0.72,0-1.46,0-2.29,0
		C29.34,26.05,29.34,25.3,29.34,24.47z"/>
	<circle class="st0" cx="20.79" cy="28.05" r="1.73"/>
	<path class="st0" d="M31.69,17.19c0-0.76,0-1.53,0-2.42c0.84,0,1.63,0,2.42,0l-0.03-0.03c-0.01,0.83-0.02,1.66-0.03,2.49
		c0,0,0.03-0.03,0.03-0.03c-0.81-0.01-1.61-0.03-2.42-0.04C31.66,17.16,31.69,17.19,31.69,17.19z"/>
	<path class="st0" d="M34.11,14.77c0-0.76,0-1.52,0-2.36c0.78,0,1.52,0,2.33,0c0,0.73,0,1.47,0,2.33c-0.79,0-1.58,0-2.37,0
		C34.08,14.74,34.11,14.77,34.11,14.77z"/>
	<path class="st0" d="M17.08,17.12c-4.02,0-7.97,0-11.96,0c0-3.99,0-7.93,0-11.96c3.95,0,7.92,0,11.96,0
		C17.08,9.1,17.08,13.07,17.08,17.12z M7.53,14.67c2.44,0,4.8,0,7.12,0c0-2.43,0-4.79,0-7.12c-2.42,0-4.75,0-7.12,0
		C7.53,9.94,7.53,12.27,7.53,14.67z"/>
	<path class="st0" d="M48.7,5.12c4.02,0,7.96,0,11.96,0c0,3.99,0,7.93,0,11.96c-3.95,0-7.92,0-11.96,0
		C48.7,13.15,48.7,9.18,48.7,5.12z M51.08,14.66c2.47,0,4.83,0,7.16,0c0-2.41,0-4.74,0-7.1c-2.41,0-4.77,0-7.16,0
		C51.08,9.96,51.08,12.28,51.08,14.66z"/>
	<path class="st0" d="M17.08,60.65c-4.02,0-7.97,0-11.97,0c0-3.99,0-7.93,0-11.96c3.95,0,7.92,0,11.97,0
		C17.08,52.64,17.08,56.6,17.08,60.65z M7.55,51.05c0,2.45,0,4.81,0,7.16c2.43,0,4.78,0,7.1,0c0-2.43,0-4.79,0-7.16
		C12.26,51.05,9.96,51.05,7.55,51.05z"/>
	<path class="st0" d="M17.17,36.54c0-0.76,0-1.52,0-2.36c0.78,0,1.52,0,2.33,0c0,0.73,0,1.47,0,2.33c-0.79,0-1.58,0-2.37,0
		C17.14,36.51,17.17,36.54,17.17,36.54z"/>
	<path class="st0" d="M43.8,21.99c0,0.82,0,1.63,0,2.45c-0.76,0-1.53,0-2.45,0c0,1.64,0,3.24,0,4.84c0,0,0.03-0.03,0.03-0.03
		c-0.82,0-1.63,0-2.45,0l0.03,0.03c0-2.43,0-4.86,0-7.29c0,0-0.03,0.03-0.03,0.03C40.55,22.01,42.17,22,43.8,21.99z"/>
	<path d="M46.25,46.23c0.79,0,1.51,0,2.3,0c0,0.77,0,1.51,0,2.31c-0.76,0-1.5,0-2.3,0C46.25,47.79,46.25,47.07,46.25,46.23z"/>
	<path d="M38.92,29.25c0.82,0,1.63,0,2.45,0c0,0.76,0,1.53,0,2.45c-0.87,0-1.66,0-2.45,0C38.92,30.88,38.92,30.06,38.92,29.25z"/>
	<circle cx="35.31" cy="30.47" r="1.73"/>
	<path d="M38.96,21.99c0,2.43,0,4.86,0,7.29c-0.82,0-1.63,0-2.45,0c0-2.37,0-4.75,0-7.29C37.37,21.99,38.16,21.99,38.96,21.99z"/>
	<path d="M7.53,14.67c0-2.41,0-4.73,0-7.12c2.38,0,4.71,0,7.12,0c0,2.33,0,4.69,0,7.12C12.33,14.67,9.97,14.67,7.53,14.67z"/>
	<path d="M51.08,14.66c0-2.38,0-4.71,0-7.1c2.39,0,4.75,0,7.16,0c0,2.36,0,4.69,0,7.1C55.91,14.66,53.55,14.66,51.08,14.66z"/>
	<path d="M7.55,51.05c2.41,0,4.71,0,7.1,0c0,2.37,0,4.72,0,7.16c-2.32,0-4.68,0-7.1,0C7.55,55.86,7.55,53.5,7.55,51.05z"/>
</g>
</svg>
