<?xml version="1.0" encoding="utf-8"?>
<!-- Generator: Adobe Illustrator 22.1.0, SVG Export Plug-In . SVG Version: 6.00 Build 0)  -->
<svg version="1.1" id="圖層_1" xmlns="http://www.w3.org/2000/svg" xmlns:xlink="http://www.w3.org/1999/xlink" x="0px" y="0px"
	 viewBox="0 0 841.9 595.3" style="enable-background:new 0 0 841.9 595.3;" xml:space="preserve">
<style type="text/css">
	.st0{fill:#FFFFFF;}
	.st1{fill:#303054;}
	.st2{fill:#E5B749;}
	.st3{fill:#C63884;}
	.st4{fill:#040000;}
	.st5{fill:#AD422B;}
	.st6{fill:#CECFCF;}
	.st7{fill:#D3DCBC;}
	.st8{fill:#BAD6DF;}
	.st9{fill:#C66E32;}
	.st10{fill:#F4EBD2;}
	.st11{fill:none;stroke:#C66E32;stroke-dasharray:2;}
	.st12{fill:none;stroke:#497D90;stroke-width:6;}
	.st13{fill:#497D90;}
	.st14{fill:#C03F32;}
	.st15{font-family:'MicrosoftJhengHeiBold';}
	.st16{font-size:15.363px;}
	.st17{font-family:'MicrosoftJhengHeiRegular';}
	.st18{font-size:17.2065px;}
	.st19{font-size:13.5194px;}
</style>
<path id="SvgjsPath8523_1_" class="st1" d="M0,0v83.4h163.6l14.2-15.1H453l7.9-7.8V14.6L476.2,0H0z"/>
<path id="SvgjsPath9251_1_" class="st1" d="M0,569.1h825.6l16.3-16.2v42.2H0V569.1z"/>
<text id="SvgjsText8531_1_" transform="matrix(1 0 0 1 466.9756 47.3369)" class="st4 st15 st16">【 收費方式 】 依里程計費</text>
<ellipse id="SvgjsEllipse8532_1_" class="st3" cx="483" cy="60.5" rx="7.4" ry="7.4"/>
<path id="SvgjsPath8533_1_" class="st0" d="M488.8,59h-7.4l2.5-3.1h-3.1l-3.1,4.3l3.1,4.3h3.1l-2.5-3.1h7.4V59z"/>
<text id="SvgjsText8534_1_" transform="matrix(1 0 0 1 492.7852 66.1265)" class="st4 st15 st16">現在位置</text>
<ellipse id="SvgjsEllipse8535_1_" class="st4" cx="567.6" cy="60.5" rx="7.4" ry="7.4"/>
<ellipse id="SvgjsEllipse8536_1_" class="st0" cx="567.6" cy="60.5" rx="4.9" ry="4.9"/>
<text id="SvgjsText8537_1_" transform="matrix(1 0 0 1 576.835 66.1265)" class="st4 st15 st16">雙邊設站</text>
<ellipse id="SvgjsEllipse8538_1_" class="st5" cx="659" cy="60.5" rx="7.4" ry="7.4"/>
<path id="SvgjsPath8539_1_" class="st0" d="M655.4,65.3V54.7l9.2,5.3L655.4,65.3z"/>
<text id="SvgjsText8540_1_" transform="matrix(1 0 0 1 668.2588 66.1265)" class="st4 st15 st16">單邊設站</text>
<ellipse id="SvgjsEllipse8541_1_" class="st4" cx="750.5" cy="60.5" rx="7.4" ry="7.4"/>
<ellipse id="SvgjsEllipse8542_1_" class="st2" cx="750.5" cy="60.5" rx="4.9" ry="4.9"/>
<text id="SvgjsText8543_1_" transform="matrix(1 0 0 1 759.6836 66.1265)" class="st4 st15 st16">起迄站</text>
<rect id="SvgjsRect8524_1_" y="83.4" class="st2" width="163.6" height="24"/>
<text id="SvgjsText8525_1_" transform="matrix(1 0 0 1 38.8042 101.8833)" class="st4 st17 st18">發車時刻表</text>
<rect id="SvgjsRect8544_1_" y="107.4" class="st6" width="163.6" height="21.4"/>
<rect id="SvgjsRect8545_1_" y="128.8" class="st7" width="163.6" height="21.9"/>
<text id="SvgjsText8546_1_" transform="matrix(1 0 0 1 55.4107 122.189)" class="st4 st17 st19">平日</text>
<rect id="SvgjsRect8547_1_" x="100.5" y="107.4" class="st8" width="63.1" height="21.9"/>
<text id="SvgjsText8548_1_" transform="matrix(1 0 0 1 118.5513 122.189)" class="st4 st17 st19">假日</text>
<rect id="SvgjsRect8549_1_" y="128.8" class="st9" width="37.4" height="21.9"/>
<text id="SvgjsText8550_1_" transform="matrix(1 0 0 1 11.9194 145.062)" class="st4 st17 st19">時</text>
<text id="SvgjsText8551_1_" transform="matrix(1 0 0 1 62.1699 145.062)" class="st4 st17 st19">分</text>
<text id="SvgjsText8552_1_" transform="matrix(1 0 0 1 125.3125 145.062)" class="st4 st17 st19">分</text>
</svg>
