<?xml version="1.0" encoding="utf-8"?>
<!-- Generator: Adobe Illustrator 22.1.0, SVG Export Plug-In . SVG Version: 6.00 Build 0)  -->
<svg version="1.1" id="圖層_1" xmlns="http://www.w3.org/2000/svg" xmlns:xlink="http://www.w3.org/1999/xlink" x="0px" y="0px"
	 viewBox="0 0 841.9 595.3" style="enable-background:new 0 0 841.9 595.3;" xml:space="preserve">
<style type="text/css">
	.st0{fill:#FFFFFF;}
	.st1{fill:#303054;}
	.st2{fill:#E5B749;}
	.st3{fill:#C63884;}
	.st4{fill:#040000;}
	.st5{fill:#AD422B;}
	.st6{fill:#CECFCF;}
	.st7{fill:#D3DCBC;}
	.st8{fill:#BAD6DF;}
	.st9{fill:#C66E32;}
	.st10{fill:#F4EBD2;}
	.st11{fill:none;stroke:#C66E32;stroke-dasharray:2;}
	.st12{fill:none;stroke:#497D90;stroke-width:6;}
	.st13{fill:#497D90;}
	.st14{fill:#C03F32;}
	.st15{enable-background:new    ;}
</style>
<path id="SvgjsPath8523_1_" class="st1" d="M0,0v83.4h163.6l14.2-15.1H453l7.9-7.8V14.6L476.2,0H0z"/>
<path id="SvgjsPath9251_1_" class="st1" d="M0,569.1h825.6l16.3-16.2v42.2H0V569.1z"/>
<g class="st15">
	<path class="st4" d="M479.9,34.7c-0.7,0.5-1.4,1.4-2.2,2.6c-0.8,1.2-1.1,2.5-1.1,4c0,1.4,0.3,2.7,1,3.9c0.7,1.3,1.4,2.3,2.3,3h-5
		V34.7H479.9z"/>
	<path class="st4" d="M492.5,48.1h-1.4v-3.8c-1.1,0.6-2.2,1.2-3.4,1.6l-0.4-1.2c0.2-0.2,0.3-0.4,0.3-0.6v-8.4h1.3V44
		c0.8-0.3,1.5-0.7,2.2-1.1v-8.1h1.4V48.1z M500.8,47l-0.8,1.2c-1.3-0.6-2.4-1.3-3.4-2.2c-1,1-2.1,1.7-3.1,2.2l-0.8-1.2
		c1.4-0.6,2.4-1.3,3-2.1c-0.7-1-1.2-2.1-1.5-3.3l1.2-0.6c0.3,1.1,0.6,2.1,1.1,2.8c0.8-1.3,1.3-3.2,1.4-5.7h-2.5
		c-0.5,1.5-1.1,2.8-1.8,3.9l-1-1.1c1-1.7,1.7-3.8,2.2-6.4l1.4,0.2c-0.1,0.6-0.2,1.2-0.5,2.1h4.7v1.3h-1.1c-0.2,3.1-0.9,5.3-1.9,6.7
		C498.5,45.8,499.6,46.5,500.8,47z"/>
	<path class="st4" d="M515.8,38.7c0,1.2-0.1,1.9-0.3,2.1s-0.4,0.3-0.7,0.4l-0.6,0.1v5.1h-6.6l0.6,0.7c-1.6,0.6-3.3,1-5.1,1.2
		l-0.6-1.1c1.6-0.1,3-0.4,4.1-0.7h-2.2v-4.5c-0.5,0.1-1,0.2-1.5,0.3l-0.5-1.2c1.7-0.2,2.9-0.6,3.6-1.3h-3l0.5-2.6h3.3v-0.7h-4v-0.9
		h4v-0.7h1.3v0.7h2.2v-0.7h1.3v0.7h3.5V38h-3.5v0.7H515.8z M506.8,38h-2.1l-0.1,0.7h2C506.7,38.5,506.8,38.2,506.8,38z M512.8,42.3
		v-0.6h-6.9v0.6H512.8z M512.8,43.9v-0.7h-6.9v0.7H512.8z M512.8,45.4v-0.7h-6.9v0.7H512.8z M514.4,39.6h-2.7v0.8h-1.3v-0.8h-2.8
		c-0.2,0.3-0.5,0.7-1,1.1h6.9l-0.2-0.6c0.5,0,0.9,0,1-0.1C514.4,40,514.4,39.9,514.4,39.6z M510.4,38.7V38h-2.2
		c0,0.3-0.1,0.5-0.2,0.7H510.4z M510.4,37.1v-0.7h-2.2v0.7H510.4z M516.1,47.2l-0.6,1c-1.6-0.4-3.1-0.6-4.7-0.7l0.5-1
		C513.3,46.7,514.9,46.9,516.1,47.2z M513.9,37.1v-0.7h-2.2v0.7H513.9z"/>
	<path class="st4" d="M531.3,38.2h-8c0,0.9-0.1,1.6-0.2,2.3h6.6c-0.1,1.8-0.2,3.3-0.3,4.5c-0.1,1.2-0.3,1.9-0.4,2.2
		c-0.2,0.3-0.4,0.5-0.7,0.7s-0.9,0.2-1.7,0.2c-0.5,0-1.1,0-1.7-0.1l-0.4-1.3c0.8,0.1,1.5,0.1,2,0.1c0.6,0,1-0.1,1.1-0.2
		s0.3-0.6,0.4-1.3c0.1-0.7,0.2-1.9,0.3-3.5H523c-0.3,2.6-1.8,4.7-4.4,6.4l-0.9-1.2c0.9-0.5,1.6-1.2,2.3-1.9c0.7-0.8,1.1-1.7,1.3-2.7
		c0.2-1,0.3-2.4,0.4-4.2H518v-1.3h6.1c-0.3-0.6-0.7-1.3-1.1-1.9l1.5-0.4c0.5,0.9,1,1.7,1.2,2.3h5.7V38.2z"/>
	<path class="st4" d="M546.7,44.8c-0.2,2.2-0.8,3.4-1.9,3.4c-0.9,0-1.8-0.9-2.4-2.7c-0.7-1.8-1.1-4.1-1.2-7h-7.9v-1.3h7.8
		c-0.1-1-0.1-1.9-0.1-2.5h1.4c0,0.6,0,1.4,0.1,2.5h4.1v1.3h-4.1c0.1,2.9,0.4,5,0.9,6.3c0.6,1.3,1,2,1.2,2c0.3,0,0.5-0.9,0.6-2.6
		L546.7,44.8z M541,45.7c-2.8,0.7-5.2,1.2-7.2,1.4l-0.3-1.3c0.9-0.1,1.9-0.3,3-0.5v-4.1h-2.5V40h6.5v1.3H538v3.8
		c1.3-0.3,2.3-0.5,3-0.7L541,45.7z M546.3,36.2l-1,0.9c-0.7-0.6-1.3-1-1.9-1.3l1-0.9C545.1,35.2,545.8,35.6,546.3,36.2z"/>
	<path class="st4" d="M554,34.7h5v13.5h-5c0.8-0.8,1.6-1.8,2.3-3c0.7-1.3,1-2.6,1-3.9c0-1.5-0.4-2.8-1.1-4
		C555.4,36.1,554.7,35.2,554,34.7z"/>
</g>
<ellipse id="SvgjsEllipse8532_1_" class="st3" cx="483" cy="60.5" rx="7.4" ry="7.4"/>
<path id="SvgjsPath8533_1_" class="st0" d="M488.8,59h-7.4l2.5-3.1h-3.1l-3.1,4.3l3.1,4.3h3.1l-2.5-3.1h7.4V59z"/>
<g class="st15">
	<path class="st4" d="M498.7,63.5c-1.3,0.8-2.8,1.6-4.5,2.4l-0.4-1.3l1.9-0.9v-3.9h-1.5v-1.2h1.5v-3h-1.8v-1.3h4.8v1.3h-1.6v3h1.6
		v1.2h-1.6v3.1c0.7-0.3,1.2-0.6,1.6-0.9L498.7,63.5z M507.3,64.2c-0.1,1.1-0.2,1.7-0.5,2.1s-0.8,0.5-1.7,0.5c-0.7,0-1.2-0.1-1.4-0.3
		s-0.4-0.7-0.4-1.4v-2.7h-1.2c0,2.5-1.4,4-4.2,4.6l-0.7-1.2c1.2-0.2,2.1-0.6,2.7-1.2c0.5-0.5,0.8-1.3,0.8-2.2h-1.4v-8.5h7.2v8.5
		h-1.9v2.7c0,0.2,0.1,0.3,0.2,0.3c0.1,0,0.3,0,0.4,0c0.3,0,0.4-0.1,0.5-0.2c0.1-0.1,0.2-0.6,0.2-1.5L507.3,64.2z M505.2,56.2v-1.1
		h-4.5v1.1H505.2z M505.2,58.7v-1.3h-4.5v1.3H505.2z M505.2,61.1v-1.2h-4.5v1.2H505.2z"/>
	<path class="st4" d="M522.6,66.4h-9.7v0.5h-1.4v-6c-0.5,0.5-1,1-1.5,1.3l-0.9-1.1c1.6-1.2,2.9-2.6,3.8-4.1h-3.4v-1.3h4.1
		c0.3-0.6,0.6-1.3,1-2.3l1.4,0.4c-0.2,0.7-0.5,1.3-0.8,1.9h7.2V57h-7.9c-0.5,0.8-1,1.7-1.6,2.4v5.6h3.9v-3.6h-3.1v-1.3h3.1v-2.5h1.4
		v2.5h3.4v1.3h-3.4v3.6h4.4V66.4z"/>
	<path class="st4" d="M528.9,53.7c-0.2,0.5-0.4,1.2-0.8,2l-0.5,1.1v10.1h-1.4v-7.7c-0.3,0.4-0.7,0.9-1.1,1.4l-0.6-1.4
		c1.2-1.5,2.2-3.4,3.1-5.7L528.9,53.7z M538,66.5H528v-1.4h2.5c-0.2-2.1-0.6-4.5-1.1-7.1l1-0.6h-2V56h4c-0.2-0.7-0.5-1.4-0.8-2.3
		l1.4-0.3c0.3,0.8,0.6,1.7,0.9,2.6h3.8v1.4h-2l1.1,0.7c-0.3,2.3-0.6,4.7-1.1,7.1h2.4V66.5z M535.3,57.4h-4.6
		c0.4,1.9,0.8,4.5,1.3,7.8h2.2C534.7,62.3,535.1,59.7,535.3,57.4z"/>
	<path class="st4" d="M553.3,66.6h-13.4v-1h1.7v-6.5h3.7l0.2-0.7h-5.5v-1.1h5.7l0.1-0.7h-5.3v-3h12v3h-5.2l-0.1,0.7h5.8v1.1H547
		l-0.2,0.7h4.8v6.5h1.7V66.6z M544.2,55.7v-0.9H542v0.9H544.2z M550.2,60.8v-0.7H543v0.7H550.2z M550.2,62.3v-0.7H543v0.7H550.2z
		 M550.2,63.9v-0.7H543v0.7H550.2z M550.2,65.6v-0.8H543v0.8H550.2z M547.7,55.7v-0.9h-2.3v0.9H547.7z M551.2,55.7v-0.9H549v0.9
		H551.2z"/>
</g>
<ellipse id="SvgjsEllipse8535_1_" class="st4" cx="567.6" cy="60.5" rx="7.4" ry="7.4"/>
<ellipse id="SvgjsEllipse8536_1_" class="st0" cx="567.6" cy="60.5" rx="4.9" ry="4.9"/>
<g class="st15">
	<path class="st4" d="M584.6,61.3h-5.7v-4.2c-0.2,0.3-0.4,0.5-0.6,0.6l-0.7-1.2c0.8-0.8,1.4-1.9,1.9-3.2l1.2,0.2
		c-0.2,0.6-0.4,1-0.4,1.1h1c-0.2-0.4-0.3-0.8-0.5-0.9l1.2-0.4c0.3,0.6,0.5,1,0.6,1.4h1.8v1.1h-1.7v0.8h1.4v1h-1.4v0.8h1.4v1h-1.4
		v0.8h1.8V61.3z M591.4,65.8l-0.5,1.2c-2.3-0.1-4.4-0.5-6.4-1.1c-1.7,0.6-3.8,0.9-6.2,1.1l-0.5-1.3c1.8-0.1,3.4-0.3,5-0.6
		c-1.2-0.6-2.1-1.3-2.7-2h-1V62h10.8v1.1c-0.8,0.7-1.9,1.4-3.3,2.1C588,65.5,589.6,65.7,591.4,65.8z M581.6,56.6v-0.8h-1.4v0.8
		H581.6z M581.6,58.4v-0.8h-1.4v0.8H581.6z M581.6,60.2v-0.8h-1.4v0.8H581.6z M587.6,63.2H582c0.7,0.5,1.6,1,2.6,1.4
		C585.4,64.4,586.4,63.9,587.6,63.2z M591.1,61.3h-5.8v-4l-0.4,0.4l-0.6-1.2c0.7-0.9,1.3-1.9,1.6-3.1l1.1,0.2
		c-0.1,0.4-0.2,0.8-0.4,1.2h1.1c-0.2-0.4-0.3-0.7-0.5-0.9l1.2-0.4c0.2,0.4,0.4,0.8,0.6,1.4h1.8v1.1h-1.9v0.8h1.6v1h-1.6v0.8h1.6v1
		h-1.6v0.8h1.9V61.3z M587.9,56.6v-0.8h-1.4v0.8H587.9z M587.9,58.4v-0.8h-1.4v0.8H587.9z M587.9,60.2v-0.8h-1.4v0.8H587.9z"/>
	<path class="st4" d="M606.8,65.7l-0.5,1.1c-2.8,0-5.1,0-6.8-0.1c-1.7-0.1-3.1-0.6-4.1-1.5c-0.4,0.7-0.8,1.3-1.3,1.8l-1.1-0.8
		c1.1-1.3,1.9-2.8,2.3-4.4h-2v-1.2c0.6-0.7,1.2-1.6,1.8-2.7h-2v-1.3h3.5v1.3c-0.4,0.9-1,1.8-1.6,2.7h1.6v1.3
		c-0.2,0.9-0.5,1.7-0.8,2.4c0.7,0.7,1.6,1.1,2.7,1.3S602.5,65.8,606.8,65.7z M596.6,55.3l-1,1c-0.6-0.8-1.3-1.4-2.1-2l1-1
		C595.2,53.8,595.9,54.5,596.6,55.3z M606.4,62.5H601c0,0.2-0.1,0.4-0.2,0.5h4.7c0,1-0.2,1.7-0.5,1.9c-0.3,0.3-1,0.4-2.1,0.4
		c-0.3,0-0.6,0-1,0l-0.3-0.9c0.4,0,0.7,0,1,0c0.8,0,1.2,0,1.3-0.1s0.1-0.3,0.2-0.5h-3.7c-0.6,0.7-1.3,1.2-2.1,1.5l-0.8-1
		c1.1-0.3,1.8-0.9,2.2-1.8h-2.4v-0.9h3.9c-0.1-0.2-0.2-0.4-0.3-0.6l1.3-0.2c0.1,0.2,0.3,0.5,0.5,0.9h3.9V62.5z M606.3,60.5h-1.1v0.6
		h-2.1c-0.2,0-0.4-0.1-0.6-0.2c-0.2-0.2-0.2-0.3-0.2-0.6v-0.4h-1.5c-0.4,0.9-1,1.4-2,1.7l-0.7-0.9c0.6-0.1,1.1-0.4,1.4-0.8h-1v0.4
		h-1.3V59h3.8c-0.1-0.1-0.2-0.4-0.3-0.6h-2.6v-4.1h2.5c0.2-0.3,0.4-0.6,0.5-0.9l1.4,0.3c-0.1,0.1-0.2,0.3-0.4,0.6h3.5v4.1h-3.4
		c0.1,0.2,0.2,0.4,0.3,0.6h3.8V60.5z M604.2,55.5V55h-4.7v0.5H604.2z M604.2,56.5v-0.4h-4.7v0.4H604.2z M604.2,57.6v-0.5h-4.7v0.5
		H604.2z M605,60.4v-0.5h-1.5v0.3c0,0.1,0.1,0.2,0.2,0.2H605z"/>
	<path class="st4" d="M614,56.2h-5.4v-1.2h2.1c-0.2-0.4-0.3-0.8-0.5-1.2l1.4-0.3c0.2,0.4,0.4,0.9,0.6,1.5h1.8V56.2z M613.6,58.4H609
		v-1.2h4.6V58.4z M613.6,60.6H609v-1.2h4.6V60.6z M613.6,66.5h-1.3v-0.6h-1.9v1H609v-5.3h4.6V66.5z M612.3,64.7v-1.8h-1.9v1.8H612.3
		z M622.2,65.7l-0.6,1.2c-1.3-0.4-2.5-1-3.5-1.8c-1,0.7-2.1,1.3-3.3,1.8l-0.8-1.2c1.3-0.4,2.3-0.9,3.1-1.6c-0.8-0.9-1.5-2-1.9-3.2
		h-0.7v-1.3h6.7v1.3c-0.6,1.3-1.3,2.4-2.1,3.2C619.9,64.9,620.9,65.4,622.2,65.7z M622,59h-2c-0.3,0-0.5-0.1-0.7-0.3
		c-0.2-0.2-0.3-0.5-0.3-0.7v-2.7h-2.1v0.9c0,0.7-0.2,1.3-0.5,2c-0.3,0.6-0.8,1.1-1.4,1.4l-1-0.9c1-0.5,1.5-1.5,1.5-2.8v-1.8h4.8v3.4
		c0,0.1,0,0.2,0.1,0.3s0.2,0.1,0.3,0.1h1.2V59z M619.6,61.1h-3.1c0.4,1,0.9,1.7,1.5,2.3C618.6,62.8,619.1,62.1,619.6,61.1z"/>
	<path class="st4" d="M630,56.8h-1.4l0.9,0.6c-0.1,1.6-0.3,3.7-0.7,6.3c0.2-0.1,0.5-0.1,0.7-0.2l0.1,1.3c-2.1,0.7-3.8,1.3-5.2,1.6
		l-0.4-1.2c0.3-0.1,0.7-0.2,1.2-0.3c0-2.1-0.1-4.6-0.5-7.5l1-0.7H624v-1.3h2.4c0-0.2-0.3-0.8-0.6-1.7l1.3-0.5
		c0.2,0.5,0.5,1.2,0.8,2.2h2.1V56.8z M628.2,56.8h-2.5c0.4,2.6,0.6,5.2,0.6,7.8l1.1-0.3C627.9,61.6,628.1,59.1,628.2,56.8z
		 M637.3,57.3h-3.8v3h3.2v6.6h-1.4V66h-3.9v0.9H630v-6.6h2.1v-6.7h1.4V56h3.8V57.3z M635.3,64.8v-3.2h-3.9v3.2H635.3z"/>
</g>
<ellipse id="SvgjsEllipse8538_1_" class="st5" cx="659" cy="60.5" rx="7.4" ry="7.4"/>
<path id="SvgjsPath8539_1_" class="st0" d="M655.4,65.3V54.7l9.2,5.3L655.4,65.3z"/>
<g class="st15">
	<path class="st4" d="M682.7,64.9h-6v2h-1.4v-2h-6v-1.2h6v-0.8h-4.6v-5.1h10.6v5.1h-4.6v0.8h6V64.9z M675.4,57h-5.2v-3.2h5.2V57z
		 M674.1,55.9v-0.9h-2.5v0.9H674.1z M675.3,59.8v-0.9h-3.2v0.9H675.3z M675.3,61.8v-0.9h-3.2v0.9H675.3z M681.8,57h-5.1v-3.2h5.1V57
		z M680,59.8v-0.9h-3.3v0.9H680z M680,61.8v-0.9h-3.3v0.9H680z M680.4,55.9v-0.9H678v0.9H680.4z"/>
	<path class="st4" d="M698.2,65.7l-0.5,1.1c-2.8,0-5.1,0-6.8-0.1c-1.7-0.1-3.1-0.6-4.1-1.5c-0.4,0.7-0.8,1.3-1.3,1.8l-1.1-0.8
		c1.1-1.3,1.9-2.8,2.3-4.4h-2v-1.2c0.6-0.7,1.2-1.6,1.8-2.7h-2v-1.3h3.5v1.3c-0.4,0.9-1,1.8-1.6,2.7h1.6v1.3
		c-0.2,0.9-0.5,1.7-0.8,2.4c0.7,0.7,1.6,1.1,2.7,1.3S693.9,65.8,698.2,65.7z M688,55.3l-1,1c-0.6-0.8-1.3-1.4-2.1-2l1-1
		C686.6,53.8,687.3,54.5,688,55.3z M697.8,62.5h-5.4c0,0.2-0.1,0.4-0.2,0.5h4.7c0,1-0.2,1.7-0.5,1.9c-0.3,0.3-1,0.4-2.1,0.4
		c-0.3,0-0.6,0-1,0l-0.3-0.9c0.4,0,0.7,0,1,0c0.8,0,1.2,0,1.3-0.1s0.1-0.3,0.2-0.5h-3.7c-0.6,0.7-1.3,1.2-2.1,1.5l-0.8-1
		c1.1-0.3,1.8-0.9,2.2-1.8h-2.4v-0.9h3.9c-0.1-0.2-0.2-0.4-0.3-0.6l1.3-0.2c0.1,0.2,0.3,0.5,0.5,0.9h3.9V62.5z M697.8,60.5h-1.1v0.6
		h-2.1c-0.2,0-0.4-0.1-0.6-0.2c-0.2-0.2-0.2-0.3-0.2-0.6v-0.4h-1.5c-0.4,0.9-1,1.4-2,1.7l-0.7-0.9c0.6-0.1,1.1-0.4,1.4-0.8h-1v0.4
		h-1.3V59h3.8c-0.1-0.1-0.2-0.4-0.3-0.6h-2.6v-4.1h2.5c0.2-0.3,0.4-0.6,0.5-0.9l1.4,0.3c-0.1,0.1-0.2,0.3-0.4,0.6h3.5v4.1h-3.4
		c0.1,0.2,0.2,0.4,0.3,0.6h3.8V60.5z M695.7,55.5V55H691v0.5H695.7z M695.7,56.5v-0.4H691v0.4H695.7z M695.7,57.6v-0.5H691v0.5
		H695.7z M696.5,60.4v-0.5H695v0.3c0,0.1,0.1,0.2,0.2,0.2H696.5z"/>
	<path class="st4" d="M705.4,56.2H700v-1.2h2.1c-0.2-0.4-0.3-0.8-0.5-1.2l1.4-0.3c0.2,0.4,0.4,0.9,0.6,1.5h1.8V56.2z M705,58.4h-4.6
		v-1.2h4.6V58.4z M705,60.6h-4.6v-1.2h4.6V60.6z M705,66.5h-1.3v-0.6h-1.9v1h-1.3v-5.3h4.6V66.5z M703.7,64.7v-1.8h-1.9v1.8H703.7z
		 M713.6,65.7L713,67c-1.3-0.4-2.5-1-3.5-1.8c-1,0.7-2.1,1.3-3.3,1.8l-0.8-1.2c1.3-0.4,2.3-0.9,3.1-1.6c-0.8-0.9-1.5-2-1.9-3.2h-0.7
		v-1.3h6.7v1.3c-0.6,1.3-1.3,2.4-2.1,3.2C711.3,64.9,712.3,65.4,713.6,65.7z M713.4,59h-2c-0.3,0-0.5-0.1-0.7-0.3
		c-0.2-0.2-0.3-0.5-0.3-0.7v-2.7h-2.1v0.9c0,0.7-0.2,1.3-0.5,2c-0.3,0.6-0.8,1.1-1.4,1.4l-1-0.9c1-0.5,1.5-1.5,1.5-2.8v-1.8h4.8v3.4
		c0,0.1,0,0.2,0.1,0.3s0.2,0.1,0.3,0.1h1.2V59z M711,61.1H708c0.4,1,0.9,1.7,1.5,2.3C710,62.8,710.6,62.1,711,61.1z"/>
	<path class="st4" d="M721.4,56.8H720l0.9,0.6c-0.1,1.6-0.3,3.7-0.7,6.3c0.2-0.1,0.5-0.1,0.7-0.2l0.1,1.3c-2.1,0.7-3.8,1.3-5.2,1.6
		l-0.4-1.2c0.3-0.1,0.7-0.2,1.2-0.3c0-2.1-0.1-4.6-0.5-7.5l1-0.7h-1.4v-1.3h2.4c0-0.2-0.3-0.8-0.6-1.7l1.3-0.5
		c0.2,0.5,0.5,1.2,0.8,2.2h2.1V56.8z M719.6,56.8h-2.5c0.4,2.6,0.6,5.2,0.6,7.8l1.1-0.3C719.3,61.6,719.6,59.1,719.6,56.8z
		 M728.7,57.3h-3.8v3h3.2v6.6h-1.4V66h-3.9v0.9h-1.4v-6.6h2.1v-6.7h1.4V56h3.8V57.3z M726.7,64.8v-3.2h-3.9v3.2H726.7z"/>
</g>
<ellipse id="SvgjsEllipse8541_1_" class="st4" cx="750.5" cy="60.5" rx="7.4" ry="7.4"/>
<ellipse id="SvgjsEllipse8542_1_" class="st2" cx="750.5" cy="60.5" rx="4.9" ry="4.9"/>
<g class="st15">
	<path class="st4" d="M774.2,65.4l-0.4,1.3c-0.6,0-1.3,0-2,0c-2.4,0-4.3-0.1-5.7-0.2c-1.5-0.2-2.7-0.9-3.7-2.3
		c-0.2,1.1-0.4,2-0.7,2.7l-1.2-0.7c0.5-1.6,0.8-3.7,0.9-6.1l1.3,0c0,0.7,0,1.4-0.1,2.1c0.3,0.6,0.7,1.1,1.2,1.6v-4.6h-3.1V58h3.1
		v-1.6h-2.7v-1.2h2.7v-1.6h1.3v1.6h2.1v1.2h-2.1V58h2.4v1.2h-2.4V61h2.1v1.3h-2.1v2.6c0.6,0.4,2.8,0.6,6.3,0.6
		C772.4,65.5,773.3,65.4,774.2,65.4z M774.1,61.2c0,1-0.1,1.8-0.3,2.2c-0.2,0.4-0.4,0.7-0.7,0.8c-0.3,0.1-0.9,0.1-1.8,0.1
		c-0.6,0-1.1,0-1.6,0c-0.5,0-0.9-0.1-1.1-0.3c-0.2-0.2-0.3-0.5-0.3-0.8v-9h5.3v5.3h-4v3.3c0,0.1,0.1,0.2,0.2,0.3
		c0.1,0.1,0.6,0.1,1.3,0.1c0.8,0,1.3,0,1.4-0.1c0.2-0.1,0.3-0.3,0.3-0.7c0-0.4,0.1-0.9,0.1-1.5L774.1,61.2z M772.2,58.1v-2.8h-2.7
		v2.8H772.2z"/>
	<path class="st4" d="M789.6,65.5l-0.5,1.3c-0.9,0-1.8,0.1-2.7,0.1c-2.8,0-4.6-0.1-5.5-0.3c-0.9-0.2-1.7-0.7-2.4-1.3
		c-0.5,0.7-1,1.3-1.5,1.8l-1.1-0.9c1.4-1.4,2.2-2.8,2.5-4.3h-2.1v-1.3c0.8-0.9,1.4-1.8,2-2.6h-2.1v-1.3h3.7v1.3
		c-0.7,1-1.3,1.9-1.9,2.6h1.9v1.3c-0.2,0.6-0.4,1.4-0.8,2.2c0.6,0.6,1.4,1,2.2,1.2c0.8,0.2,2.5,0.3,5.1,0.3
		C787.6,65.5,788.7,65.5,789.6,65.5z M779.8,55.3l-1,1c-0.6-0.7-1.4-1.3-2.4-1.9l0.9-1C778.2,53.9,779.1,54.5,779.8,55.3z
		 M789.4,61.5c-0.1,1.3-0.4,2.1-0.7,2.4c-0.4,0.4-1,0.5-1.8,0.5l-4,0c-0.5,0-0.9-0.1-1.3-0.4c-0.3-0.3-0.5-0.7-0.5-1.2
		c0-0.3,0.1-0.6,0.3-0.9s0.7-0.8,1.5-1.4c0.8-0.6,1.7-1.2,2.8-1.8h-3.9v-1.1c-0.1,0.2-0.3,0.4-0.6,0.6l-1-0.9c1-1,1.8-2.3,2.4-4
		l1.3,0.3c0,0.1-0.1,0.4-0.2,0.6c-0.1,0.3-0.2,0.5-0.2,0.6h5.9v1.3h-6.6c-0.2,0.4-0.5,0.9-0.9,1.4h6.3v1.2c-1.3,0.7-2.5,1.5-3.6,2.3
		s-1.7,1.3-1.8,1.4c-0.1,0.1-0.2,0.3-0.2,0.4c0,0.2,0.1,0.3,0.4,0.4c0.3,0,1.1,0.1,2.4,0.1c1.2,0,1.9,0,2.1-0.1
		c0.2-0.1,0.3-0.3,0.4-0.6s0.2-0.8,0.2-1.4L789.4,61.5z"/>
	<path class="st4" d="M797.4,56.8H796l0.9,0.6c-0.1,1.6-0.3,3.7-0.7,6.3c0.2-0.1,0.5-0.1,0.7-0.2l0.1,1.3c-2.1,0.7-3.8,1.3-5.2,1.6
		l-0.4-1.2c0.3-0.1,0.7-0.2,1.2-0.3c0-2.1-0.1-4.6-0.5-7.5l1-0.7h-1.4v-1.3h2.4c0-0.2-0.3-0.8-0.6-1.7l1.3-0.5
		c0.2,0.5,0.5,1.2,0.8,2.2h2.1V56.8z M795.7,56.8h-2.5c0.4,2.6,0.6,5.2,0.6,7.8l1.1-0.3C795.3,61.6,795.6,59.1,795.7,56.8z
		 M804.8,57.3h-3.8v3h3.2v6.6h-1.4V66h-3.9v0.9h-1.4v-6.6h2.1v-6.7h1.4V56h3.8V57.3z M802.8,64.8v-3.2h-3.9v3.2H802.8z"/>
</g>
<rect id="SvgjsRect8524_1_" y="83.4" class="st2" width="163.6" height="24"/>
<g class="st15">
	<path class="st4" d="M47,89c-1.1,1.4-2.7,2.6-4.8,3.7h4v3.5h-3.4l-0.2,1.9h3.7c0,1.4-0.1,2.3-0.2,2.9s-0.3,1-0.5,1.2
		s-0.4,0.4-0.7,0.4c-0.2,0.1-0.9,0.1-2.1,0.1c-0.5,0-0.9,0-1.4,0l-0.2-0.9l2.9,0.1c0.4,0,0.7-0.2,0.9-0.6s0.2-1.2,0.2-2.3h-3.7
		l0.4-3.6h3.4v-1.8h-3.3v-0.8c-0.6,0.3-1.1,0.5-1.6,0.7l-0.5-0.8c0.9-0.3,1.9-0.7,2.9-1.3c-0.4-0.4-0.9-0.7-1.6-1.1l0.5-0.7
		c0.8,0.4,1.4,0.9,1.9,1.3c1.1-0.7,1.8-1.3,2.3-2h-4.3v-0.9H47V89z M54.8,102.1l-0.6,0.7c-1-0.8-2-1.5-3.1-2.2
		c-1.2,1-2.4,1.7-3.8,2.2l-0.6-0.7c1.1-0.3,2.3-1,3.7-2l-2.8-1.7l0.5-0.6h-0.8v-0.9h6.3c-0.4,1.2-1,2.2-1.8,3.1
		C52.6,100.5,53.6,101.2,54.8,102.1z M54.3,96.1h-1.9c-0.3,0-0.5-0.1-0.7-0.3s-0.3-0.4-0.3-0.7v-1.6h-2.1c-0.1,1.3-0.6,2.2-1.6,2.9
		L47,95.9c1-0.7,1.5-1.7,1.5-3.2h3.8v2.3c0,0.2,0.1,0.3,0.4,0.3h1.6V96.1z M54.9,92.6l-0.4,0.8c-3-1-5.2-2.8-6.6-5.4l0.8-0.3
		c0.3,0.6,0.7,1.2,1.2,1.6c0.5-0.4,1-0.9,1.5-1.5l0.8,0.4c-0.5,0.6-1,1.2-1.7,1.7c0.5,0.5,0.8,0.8,1.2,1c0.7-0.5,1.3-1,1.8-1.6
		l0.7,0.5c-0.6,0.6-1.2,1.2-1.8,1.6C53.1,91.9,54,92.3,54.9,92.6z M52.3,97.8h-4.1c1.1,0.6,2,1.2,2.9,1.7
		C51.5,99.1,51.9,98.5,52.3,97.8z"/>
	<path class="st4" d="M72.1,100.4h-7v2.4h-0.9v-2.4h-7v-0.9h7V98h-5.5v-6.2h5.5v-1.5h-6.7v-0.9h6.7v-1.7h0.9v1.7h6.6v0.9h-6.6v1.5
		h5.5V98h-5.5v1.5h7V100.4z M64.3,94.4v-1.8h-4.6v1.8H64.3z M64.3,97.1v-1.9h-4.6v1.9H64.3z M69.7,94.4v-1.8h-4.6v1.8H69.7z
		 M69.7,95.2h-4.6v1.9h4.6L69.7,95.2z"/>
	<path class="st4" d="M79.1,101.9h-0.9v-1.4h-2.4v1.7H75V88.8h4.2V101.9z M78.2,94.2v-4.5h-2.4v4.5H78.2z M78.2,99.7V95h-2.4v4.6
		H78.2z M89,90.5h-4V93h3.5v0.9h-8.1V93h3.6v-2.5h-4.2v-0.9h4.2v-1.9H85v1.9h4V90.5z M89.4,96.8h-1.9v4.5c0,0.6-0.2,1-0.5,1.1
		c-0.3,0.2-0.9,0.3-1.8,0.3c-0.3,0-0.6,0-1,0l-0.4-0.9c0.6,0,1,0.1,1.5,0.1c0.6,0,0.9,0,1.1-0.1s0.2-0.2,0.2-0.4v-4.4h-6.7v-0.9h6.7
		v-1.6h0.9v1.6h1.9V96.8z M84.2,100.3l-0.8,0.5c-0.6-0.9-1.3-1.8-2.2-2.6l0.8-0.5C82.7,98.3,83.5,99.2,84.2,100.3z"/>
	<path class="st4" d="M101,101.5l-0.6,0.8c-1-1-2-1.9-3-2.7c-1.6,1.5-3.4,2.5-5.3,3.2l-0.5-0.8c1-0.3,2-0.8,3-1.4
		c1-0.6,1.9-1.3,2.7-2.1c0.7-0.8,1.5-2.1,2.3-3.8l0.8,0.3c-0.6,1.4-1.4,2.8-2.4,4C99.6,100.2,100.6,101.1,101,101.5z M100.8,90.3
		h-4.5c-0.9,1.8-1.8,3.1-2.6,3.9c0.9-0.1,2.1-0.2,3.6-0.5c0.5-0.8,0.8-1.5,1.1-2.2l0.8,0.4c-1.3,3.3-3.7,5.7-6.9,7.3l-0.4-0.8
		c2-0.9,3.6-2.2,4.8-3.7c-1.7,0.3-3.2,0.5-4.3,0.5l-0.2-0.9c1.2-0.9,2.2-2.2,3-4h-3.5v-0.8H96c-0.1-0.4-0.3-0.9-0.7-1.6l0.9-0.2
		c0.3,0.4,0.5,1.1,0.8,1.8h3.9V90.3z M102.6,99.3h-0.9V88.9h0.9V99.3z M106.2,100.9c0,0.5-0.1,0.8-0.4,1c-0.2,0.2-0.6,0.4-1.1,0.4
		s-0.9,0-1.3,0c-0.4,0-0.7,0-1,0l-0.4-0.9c0.6,0,1.1,0,1.5,0c0.9,0,1.4,0,1.5-0.1c0.1-0.1,0.2-0.2,0.2-0.4V87.7h0.9V100.9z"/>
	<path class="st4" d="M123.8,95.5h-8c-0.5,0.7-1,1.3-1.7,1.8v4.3c0.9-0.1,2.3-0.5,4-1.2l0.2,0.9c-1.9,0.7-3.5,1.2-4.9,1.4l-0.5-0.8
		c0.2-0.1,0.3-0.3,0.3-0.5v-3.4c-1.1,0.8-2.4,1.6-3.9,2.3l-0.6-0.7c2.6-1.2,4.6-2.6,5.9-4.1h-5.9v-0.8h7.1v-1.9h-6v-0.9h6V90h-6.7
		v-0.8h6.7v-1.4h0.9v1.4h6.6V90h-6.6v1.8h5.8v0.9h-5.8v1.9h6.9V95.5z M123.9,102l-0.5,0.8c-1.6-0.6-2.9-1.3-3.9-2.3
		c-1-0.9-1.9-2.2-2.6-3.9l0.8-0.5c0.6,1.3,1.1,2.2,1.7,2.9c1.2-0.8,2.2-1.7,3-2.6l0.7,0.6c-1.1,1.1-2.1,2-3.1,2.6
		C120.9,100.7,122.2,101.4,123.9,102z"/>
</g>
<rect id="SvgjsRect8544_1_" y="107.4" class="st6" width="163.6" height="21.4"/>
<rect id="SvgjsRect8545_1_" y="128.8" class="st7" width="163.6" height="21.9"/>
<g class="st15">
	<path class="st4" d="M68.1,118.5h-5.5v4.4h-0.7v-4.4h-5.5v-0.7h5.5v-5.7h-5.2v-0.7h11.1v0.7h-5.2v5.7h5.5V118.5z M59.9,116.5
		l-0.7,0.3c-0.3-0.9-0.8-1.9-1.7-3.2l0.6-0.3C59,114.4,59.6,115.5,59.9,116.5z M67,113.6c-0.4,1.1-1,2.2-1.9,3.2l-0.7-0.4
		c0.8-0.9,1.5-1.9,1.9-3.1L67,113.6z"/>
	<path class="st4" d="M80.1,122.9h-0.8v-1.2h-7.1v1.2h-0.8v-11.6h8.7V122.9z M79.4,116.1v-4h-7.1v4H79.4z M79.4,121v-4.2h-7.1v4.2
		H79.4z"/>
</g>
<rect id="SvgjsRect8547_1_" x="100.5" y="107.4" class="st8" width="63.1" height="21.9"/>
<g class="st15">
	<path class="st4" d="M122.2,111.2c-0.1,0.4-0.2,0.9-0.4,1.4l-0.3,0.8v9.5h-0.7v-7.8c-0.4,0.8-0.8,1.5-1.1,2.1l-0.4-0.7
		c0.9-1.4,1.7-3.3,2.3-5.5L122.2,111.2z M126.7,120.2h-3.1v2.7h-0.7v-11.5h3.7v3.7h-3v1.8h2.8v0.7h-2.8v1.9h3.1V120.2z M125.9,114.4
		v-2.4h-2.3v2.4H125.9z M131.4,122.4l-0.5,0.6c-0.8-0.7-1.5-1.3-1.8-1.9c-0.6,0.7-1.4,1.3-2.4,1.8l-0.5-0.5c1.1-0.6,1.9-1.2,2.4-1.9
		c-0.6-1.1-1-2.2-1.3-3.4h-0.4v-0.7h3.9c-0.1,1.7-0.6,3-1.3,4.1C129.7,121,130.4,121.6,131.4,122.4z M130.9,115.1h-3.7v-0.6h3V112
		h-3v-0.6h3.7V115.1z M130,117h-2c0.2,1,0.5,2,1,2.7C129.5,118.9,129.9,118,130,117z"/>
	<path class="st4" d="M143.3,122.9h-0.8v-1.2h-7.1v1.2h-0.8v-11.6h8.7V122.9z M142.5,116.1v-4h-7.1v4H142.5z M142.5,121v-4.2h-7.1
		v4.2H142.5z"/>
</g>
<rect id="SvgjsRect8549_1_" y="128.8" class="st9" width="37.4" height="21.9"/>
<g class="st15">
	<path class="st4" d="M16.6,145.1h-0.7V144H14v1.4h-0.7v-10.6h3.3V145.1z M15.9,139v-3.6H14v3.6H15.9z M15.9,143.3v-3.6H14v3.6H15.9
		z M24.3,136.1h-3.1v2H24v0.7h-6.3v-0.7h2.8v-2h-3.3v-0.7h3.3v-1.5h0.7v1.5h3.1V136.1z M24.6,141.1h-1.5v3.5c0,0.5-0.1,0.8-0.4,0.9
		c-0.2,0.1-0.7,0.2-1.4,0.2c-0.2,0-0.5,0-0.8,0l-0.3-0.7c0.4,0,0.8,0,1.1,0c0.4,0,0.7,0,0.8-0.1s0.2-0.2,0.2-0.4v-3.5h-5.3v-0.7h5.3
		v-1.3h0.7v1.3h1.5V141.1z M20.6,143.8l-0.6,0.4c-0.5-0.7-1.1-1.4-1.7-2.1l0.6-0.4C19.4,142.3,20,143,20.6,143.8z"/>
</g>
<g class="st15">
	<path class="st4" d="M67.8,134.2c-1.1,2.5-2.5,4.3-4.3,5.6l-0.5-0.6c1.7-1.2,3.1-2.9,4.1-5.2L67.8,134.2z M72.8,138.9
		c0,1.4-0.1,2.7-0.3,3.9s-0.3,1.9-0.4,2.1c-0.1,0.3-0.3,0.5-0.6,0.6c-0.3,0.1-0.7,0.2-1.3,0.2c-0.3,0-0.6,0-1.1,0l-0.2-0.7
		c0.5,0,0.9,0.1,1.4,0.1c0.4,0,0.7,0,0.8-0.1c0.1-0.1,0.2-0.1,0.3-0.2c0.1-0.1,0.2-0.4,0.3-0.9c0.1-0.5,0.2-1.1,0.3-1.8
		c0.1-0.7,0.1-1.5,0.1-2.4h-3.5c-0.3,2.7-1.8,4.7-4.5,6.3l-0.4-0.6c2.5-1.4,3.9-3.3,4.1-5.7h-2.6v-0.7H72.8z M74.9,139.1l-0.5,0.6
		c-1.8-1.3-3-2.9-3.7-5h-1V134h1.5C71.9,136.3,73.2,138,74.9,139.1z"/>
</g>
<g class="st15">
	<path class="st4" d="M131,134.2c-1.1,2.5-2.5,4.3-4.3,5.6l-0.5-0.6c1.7-1.2,3.1-2.9,4.1-5.2L131,134.2z M135.9,138.9
		c0,1.4-0.1,2.7-0.3,3.9s-0.3,1.9-0.4,2.1c-0.1,0.3-0.3,0.5-0.6,0.6c-0.3,0.1-0.7,0.2-1.3,0.2c-0.3,0-0.6,0-1.1,0L132,145
		c0.5,0,0.9,0.1,1.4,0.1c0.4,0,0.7,0,0.8-0.1c0.1-0.1,0.2-0.1,0.3-0.2c0.1-0.1,0.2-0.4,0.3-0.9c0.1-0.5,0.2-1.1,0.3-1.8
		c0.1-0.7,0.1-1.5,0.1-2.4h-3.5c-0.3,2.7-1.8,4.7-4.5,6.3l-0.4-0.6c2.5-1.4,3.9-3.3,4.1-5.7h-2.6v-0.7H135.9z M138.1,139.1l-0.5,0.6
		c-1.8-1.3-3-2.9-3.7-5h-1V134h1.5C135.1,136.3,136.3,138,138.1,139.1z"/>
</g>
</svg>
